<?xml version="1.0" encoding="UTF-8"?>
<svg xmlns="http://www.w3.org/2000/svg" xmlns:xlink="http://www.w3.org/1999/xlink" width="100" height="100" viewBox="0 0 100 100">
<path fill-rule="nonzero" fill="rgb(23.137255%, 23.137255%, 23.137255%)" fill-opacity="1" d="M 19.492188 20.734375 C 20.6875 21.4375 21.875 22.152344 23.054688 22.878906 C 23.6875 23.253906 24.324219 23.628906 24.976562 24.019531 C 26.992188 25.214844 28.996094 26.433594 30.996094 27.652344 C 32.355469 28.464844 33.710938 29.273438 35.070312 30.082031 C 44.289062 35.585938 44.289062 35.585938 48.484375 38.382812 C 51.851562 38.015625 54.300781 36.4375 57.132812 34.660156 C 61.667969 31.871094 66.277344 29.300781 70.972656 26.792969 C 73.757812 25.242188 76.417969 23.558594 79.105469 21.84375 C 81.839844 20.21875 83.824219 19.195312 86.933594 18.433594 C 91.6875 19.648438 95.457031 21.839844 98.988281 25.253906 C 100 28.472656 100 28.472656 98.988281 32.324219 C 96.929688 36.238281 94.441406 39.804688 91.917969 43.433594 C 90.542969 45.492188 89.175781 47.554688 87.808594 49.621094 C 85.824219 52.617188 83.820312 55.601562 81.816406 58.585938 C 83.246094 61.648438 83.246094 61.648438 85.542969 64.078125 C 86.867188 65.65625 86.867188 65.65625 86.832031 67.929688 C 85.464844 71.832031 82.800781 73.816406 79.671875 76.324219 C 79.109375 76.800781 78.546875 77.273438 77.96875 77.761719 C 74.085938 80.957031 70.230469 83.746094 65.65625 85.859375 C 63.585938 85.351562 63.585938 85.351562 61.617188 83.839844 C 60.261719 80.96875 60.261719 80.96875 59.082031 77.339844 C 58.871094 76.699219 58.65625 76.058594 58.433594 75.398438 C 57.753906 73.355469 57.097656 71.304688 56.4375 69.253906 C 55.769531 67.207031 55.097656 65.164062 54.421875 63.121094 C 53.808594 61.265625 53.207031 59.40625 52.609375 57.546875 C 51.601562 54.417969 51.601562 54.417969 49.496094 51.515625 C 49.03125 52.96875 49.03125 52.96875 48.554688 54.449219 C 47.398438 58.042969 46.214844 61.628906 45.023438 65.214844 C 44.515625 66.765625 44.007812 68.320312 43.511719 69.875 C 42.796875 72.113281 42.054688 74.34375 41.308594 76.570312 C 41.089844 77.265625 40.875 77.964844 40.648438 78.679688 C 39.527344 81.953125 38.832031 83.570312 35.808594 85.371094 C 33.332031 85.859375 33.332031 85.859375 31.207031 84.792969 C 30.511719 84.1875 29.820312 83.578125 29.105469 82.953125 C 28.328125 82.292969 27.554688 81.632812 26.753906 80.949219 C 25.925781 80.238281 25.097656 79.523438 24.242188 78.789062 C 21.542969 76.761719 18.839844 74.734375 16.128906 72.71875 C 13.8125 70.375 13.445312 68.890625 13.132812 65.65625 C 15.132812 63.988281 17.132812 62.324219 19.191406 60.605469 C 16.460938 55.671875 13.496094 51.011719 10.273438 46.382812 C 9.089844 44.445312 9.089844 44.445312 9.089844 42.425781 C 8.425781 42.425781 7.757812 42.425781 7.070312 42.425781 C 5.589844 39.808594 5.589844 39.808594 4.113281 37.195312 C 3.136719 35.535156 2.078125 33.925781 1.011719 32.324219 C 0.566406 29.417969 0.566406 29.417969 1.011719 26.261719 C 6.226562 19.886719 11.601562 17.074219 19.492188 20.734375 Z M 8.082031 26.261719 C 8.082031 26.929688 8.082031 27.597656 8.082031 28.28125 C 10.855469 29.15625 13.632812 30.019531 16.414062 30.871094 C 17.59375 31.246094 17.59375 31.246094 18.792969 31.625 C 19.9375 31.972656 19.9375 31.972656 21.101562 32.328125 C 21.800781 32.542969 22.5 32.761719 23.21875 32.984375 C 25.542969 33.382812 27.066406 33.042969 29.292969 32.324219 C 27.003906 30.96875 24.710938 29.625 22.410156 28.28125 C 21.4375 27.703125 21.4375 27.703125 20.445312 27.113281 C 15.472656 24.230469 13.152344 23.464844 8.082031 26.261719 Z M 8.082031 33.332031 C 8.597656 34.105469 8.597656 34.105469 9.121094 34.894531 C 9.613281 35.628906 10.101562 36.363281 10.605469 37.121094 C 11.429688 38.351562 11.429688 38.351562 12.265625 39.605469 C 13.597656 41.605469 14.917969 43.613281 16.238281 45.621094 C 16.941406 46.691406 17.644531 47.761719 18.371094 48.863281 C 19.03125 49.871094 19.691406 50.878906 20.371094 51.917969 C 21.882812 54.0625 23.320312 55.816406 25.253906 57.574219 C 27.503906 55.976562 29.757812 54.378906 32.007812 52.777344 C 32.640625 52.328125 33.273438 51.882812 33.921875 51.421875 C 37.519531 48.859375 41.027344 46.230469 44.445312 43.433594 C 26.640625 36.460938 26.640625 36.460938 8.082031 33.332031 Z M 82.632812 35.320312 C 81.917969 35.523438 81.203125 35.726562 80.464844 35.933594 C 78.179688 36.578125 75.894531 37.230469 73.609375 37.878906 C 72.0625 38.316406 70.515625 38.753906 68.96875 39.191406 C 65.167969 40.265625 61.371094 41.34375 57.574219 42.425781 C 57.574219 43.425781 57.574219 44.425781 57.574219 45.453125 C 59.960938 47.332031 62.292969 48.988281 64.835938 50.632812 C 65.515625 51.089844 66.195312 51.550781 66.898438 52.023438 C 70.480469 54.378906 73.410156 56.140625 77.777344 56.566406 C 79.46875 53.917969 81.148438 51.265625 82.828125 48.609375 C 83.308594 47.855469 83.792969 47.101562 84.289062 46.328125 C 84.742188 45.605469 85.199219 44.882812 85.667969 44.136719 C 86.09375 43.46875 86.515625 42.804688 86.953125 42.117188 C 88.039062 40.433594 88.039062 40.433594 87.878906 38.382812 C 88.546875 38.382812 89.210938 38.382812 89.898438 38.382812 C 90.566406 36.71875 91.230469 35.050781 91.917969 33.332031 C 88.699219 33.332031 85.707031 34.445312 82.632812 35.320312 Z M 35.355469 55.554688 C 33.019531 57.222656 30.6875 58.890625 28.28125 60.605469 C 28.617188 61.9375 28.949219 63.273438 29.292969 64.644531 C 29.960938 64.644531 30.625 64.644531 31.3125 64.644531 C 32.683594 63.070312 32.683594 63.070312 33.964844 61.109375 C 34.640625 60.125 34.640625 60.125 35.328125 59.121094 C 35.671875 58.613281 36.011719 58.101562 36.363281 57.574219 C 36.03125 56.910156 35.695312 56.242188 35.355469 55.554688 Z M 40.402344 58.585938 C 41.414062 60.605469 41.414062 60.605469 41.414062 60.605469 Z M 39.394531 60.605469 C 39.027344 61.175781 38.660156 61.75 38.28125 62.339844 C 34.179688 68.324219 34.179688 68.324219 30.238281 70.011719 C 26.152344 69.578125 24.785156 67.734375 22.222656 64.644531 C 21.222656 65.644531 20.222656 66.644531 19.191406 67.675781 C 24.085938 71.957031 29.105469 75.945312 34.34375 79.796875 C 35.382812 76.980469 36.414062 74.160156 37.4375 71.339844 C 37.734375 70.535156 38.03125 69.734375 38.339844 68.90625 C 38.613281 68.140625 38.890625 67.371094 39.175781 66.578125 C 39.566406 65.515625 39.566406 65.515625 39.960938 64.433594 C 40.632812 62.539062 40.632812 62.539062 39.394531 60.605469 Z M 39.394531 60.605469 "/>
<path fill-rule="nonzero" fill="rgb(36.470588%, 36.470588%, 36.470588%)" fill-opacity="1" d="M 19.492188 20.71875 C 20.6875 21.414062 21.875 22.121094 23.054688 22.839844 C 23.6875 23.214844 24.324219 23.589844 24.976562 23.976562 C 26.3125 24.765625 27.640625 25.558594 28.96875 26.363281 C 30.996094 27.585938 33.03125 28.792969 35.070312 29.992188 C 36.371094 30.765625 37.667969 31.539062 38.964844 32.3125 C 39.570312 32.671875 40.175781 33.03125 40.800781 33.402344 C 43.6875 35.152344 46.246094 36.847656 48.484375 39.394531 C 47.691406 39.332031 46.902344 39.269531 46.085938 39.203125 C 44.773438 39.296875 44.773438 39.296875 43.433594 39.394531 C 42.769531 40.394531 42.101562 41.394531 41.414062 42.425781 C 37.320312 41.804688 33.429688 40.941406 29.457031 39.769531 C 28.382812 39.453125 27.308594 39.136719 26.203125 38.8125 C 25.097656 38.484375 23.992188 38.15625 22.855469 37.816406 C 21.726562 37.484375 20.597656 37.148438 19.433594 36.808594 C 16.65625 35.988281 13.882812 35.167969 11.109375 34.34375 C 10.777344 34.675781 10.445312 35.011719 10.101562 35.355469 C 10.53125 35.964844 10.957031 36.578125 11.398438 37.207031 C 11.992188 38.054688 12.585938 38.902344 13.195312 39.773438 C 13.835938 40.683594 14.476562 41.59375 15.136719 42.535156 C 16.484375 44.472656 17.824219 46.417969 19.144531 48.375 C 20.074219 49.742188 20.074219 49.742188 21.023438 51.136719 C 21.589844 51.984375 22.160156 52.828125 22.746094 53.699219 C 23.242188 54.3125 23.734375 54.925781 24.242188 55.554688 C 26.894531 55.554688 27.8125 54.59375 29.925781 53.03125 C 30.5625 52.5625 31.199219 52.09375 31.859375 51.609375 C 32.34375 51.246094 32.832031 50.878906 33.332031 50.503906 C 34 50.839844 34.667969 51.171875 35.355469 51.515625 C 35.019531 52.515625 34.6875 53.515625 34.34375 54.546875 C 36.011719 53.878906 37.675781 53.210938 39.394531 52.523438 C 39.394531 53.523438 39.394531 54.523438 39.394531 55.554688 C 37.652344 56.277344 35.910156 57.003906 34.164062 57.726562 C 32.054688 58.65625 32.054688 58.65625 29.292969 60.605469 C 29.292969 61.605469 29.292969 62.605469 29.292969 63.636719 C 29.960938 63.96875 30.625 64.304688 31.3125 64.644531 C 31.582031 63.855469 31.855469 63.0625 32.132812 62.246094 C 33.332031 59.597656 33.332031 59.597656 36.363281 57.574219 C 36.695312 57.910156 37.03125 58.242188 37.375 58.585938 C 38.375 58.585938 39.375 58.585938 40.402344 58.585938 C 40.550781 59.566406 40.695312 60.542969 40.847656 61.554688 C 41.085938 64.511719 41.085938 64.511719 42.425781 65.65625 C 43.089844 64.988281 43.757812 64.324219 44.445312 63.636719 C 43.789062 68.285156 42.65625 72.570312 41.160156 77.019531 C 40.761719 78.253906 40.359375 79.488281 39.945312 80.761719 C 38.382812 83.839844 38.382812 83.839844 35.949219 85.457031 C 33.332031 85.859375 33.332031 85.859375 31.207031 84.792969 C 30.511719 84.1875 29.820312 83.578125 29.105469 82.953125 C 28.328125 82.292969 27.554688 81.632812 26.753906 80.949219 C 25.925781 80.238281 25.097656 79.523438 24.242188 78.789062 C 21.542969 76.761719 18.839844 74.734375 16.128906 72.71875 C 13.8125 70.375 13.445312 68.890625 13.132812 65.65625 C 15.132812 63.988281 17.132812 62.324219 19.191406 60.605469 C 16.460938 55.671875 13.496094 51.011719 10.273438 46.382812 C 9.089844 44.445312 9.089844 44.445312 9.089844 42.425781 C 8.425781 42.425781 7.757812 42.425781 7.070312 42.425781 C 5.589844 39.808594 5.589844 39.808594 4.113281 37.195312 C 3.136719 35.535156 2.078125 33.925781 1.011719 32.324219 C 0.566406 29.417969 0.566406 29.417969 1.011719 26.261719 C 6.230469 19.882812 11.589844 17.09375 19.492188 20.71875 Z M 8.082031 26.261719 C 8.082031 26.929688 8.082031 27.597656 8.082031 28.28125 C 10.855469 29.15625 13.632812 30.019531 16.414062 30.871094 C 17.59375 31.246094 17.59375 31.246094 18.792969 31.625 C 19.9375 31.972656 19.9375 31.972656 21.101562 32.328125 C 21.800781 32.542969 22.5 32.761719 23.21875 32.984375 C 25.542969 33.382812 27.066406 33.042969 29.292969 32.324219 C 27.003906 30.96875 24.710938 29.625 22.410156 28.28125 C 21.4375 27.703125 21.4375 27.703125 20.445312 27.113281 C 15.472656 24.230469 13.152344 23.464844 8.082031 26.261719 Z M 39.394531 60.605469 C 39.027344 61.175781 38.660156 61.75 38.28125 62.339844 C 34.179688 68.324219 34.179688 68.324219 30.238281 70.011719 C 26.152344 69.578125 24.785156 67.734375 22.222656 64.644531 C 21.222656 65.644531 20.222656 66.644531 19.191406 67.675781 C 24.085938 71.957031 29.105469 75.945312 34.34375 79.796875 C 35.382812 76.980469 36.414062 74.160156 37.4375 71.339844 C 37.734375 70.535156 38.03125 69.734375 38.339844 68.90625 C 38.613281 68.140625 38.890625 67.371094 39.175781 66.578125 C 39.566406 65.515625 39.566406 65.515625 39.960938 64.433594 C 40.632812 62.539062 40.632812 62.539062 39.394531 60.605469 Z M 39.394531 60.605469 "/>
<path fill-rule="nonzero" fill="rgb(23.921569%, 23.921569%, 23.921569%)" fill-opacity="1" d="M 89.898438 19.191406 C 93.347656 20.816406 96.242188 22.597656 98.988281 25.253906 C 100 28.472656 100 28.472656 98.988281 32.324219 C 96.933594 36.238281 94.445312 39.808594 91.917969 43.433594 C 90.542969 45.441406 89.171875 47.453125 87.808594 49.472656 C 86.898438 50.816406 85.980469 52.160156 85.050781 53.496094 C 82.445312 57.210938 82.445312 57.210938 81.816406 61.617188 C 81.152344 61.617188 80.484375 61.617188 79.796875 61.617188 C 79.796875 60.949219 79.796875 60.28125 79.796875 59.597656 C 79.132812 59.597656 78.464844 59.597656 77.777344 59.597656 C 77.777344 58.929688 77.777344 58.261719 77.777344 57.574219 C 76.445312 57.574219 75.109375 57.574219 73.738281 57.574219 C 74.070312 56.910156 74.402344 56.242188 74.746094 55.554688 C 76.246094 56.054688 76.246094 56.054688 77.777344 56.566406 C 78.027344 55.875 78.277344 55.183594 78.535156 54.46875 C 80.015625 51 81.867188 47.835938 83.839844 44.632812 C 84.199219 44.03125 84.558594 43.425781 84.925781 42.804688 C 85.851562 41.292969 86.859375 39.832031 87.878906 38.382812 C 88.546875 38.382812 89.210938 38.382812 89.898438 38.382812 C 90.230469 37.050781 90.566406 35.71875 90.910156 34.34375 C 79.757812 37.242188 68.636719 40.203125 57.574219 43.433594 C 57.574219 44.101562 57.574219 44.769531 57.574219 45.453125 C 56.574219 45.453125 55.574219 45.453125 54.546875 45.453125 C 54.546875 44.453125 54.546875 43.453125 54.546875 42.425781 C 52.546875 42.089844 50.546875 41.757812 48.484375 41.414062 C 48.484375 40.746094 48.484375 40.082031 48.484375 39.394531 C 49.441406 38.878906 49.441406 38.878906 50.417969 38.351562 C 55.886719 35.390625 61.324219 32.375 66.730469 29.292969 C 67.628906 28.78125 67.628906 28.78125 68.542969 28.261719 C 72.195312 26.175781 75.75 23.976562 79.292969 21.71875 C 85.46875 18.0625 85.46875 18.0625 89.898438 19.191406 Z M 89.898438 19.191406 "/>
<path fill-rule="nonzero" fill="rgb(24.313725%, 24.313725%, 24.313725%)" fill-opacity="1" d="M 16.160156 19.191406 C 18.613281 20.316406 20.769531 21.445312 23.054688 22.839844 C 23.6875 23.214844 24.324219 23.589844 24.976562 23.976562 C 26.3125 24.765625 27.640625 25.558594 28.96875 26.363281 C 30.996094 27.585938 33.03125 28.792969 35.070312 29.992188 C 36.371094 30.765625 37.667969 31.539062 38.964844 32.3125 C 39.570312 32.671875 40.175781 33.03125 40.800781 33.402344 C 43.6875 35.152344 46.246094 36.847656 48.484375 39.394531 C 47.691406 39.332031 46.902344 39.269531 46.085938 39.203125 C 44.773438 39.296875 44.773438 39.296875 43.433594 39.394531 C 42.769531 40.394531 42.101562 41.394531 41.414062 42.425781 C 35.707031 41.675781 30.359375 40.007812 24.875 38.320312 C 23.9375 38.035156 23 37.75 22.035156 37.457031 C 19.742188 36.761719 17.445312 36.058594 15.152344 35.355469 C 15.152344 34.6875 15.152344 34.019531 15.152344 33.332031 C 14.289062 33.199219 13.425781 33.066406 12.535156 32.925781 C 10.863281 32.660156 10.863281 32.660156 9.152344 32.386719 C 7.484375 32.121094 7.484375 32.121094 5.78125 31.855469 C 3.03125 31.3125 3.03125 31.3125 2.019531 30.304688 C 1.453125 27.523438 1.453125 27.523438 2.019531 24.242188 C 6.289062 20.152344 10.285156 18.6875 16.160156 19.191406 Z M 8.082031 26.261719 C 8.082031 26.929688 8.082031 27.597656 8.082031 28.28125 C 10.855469 29.15625 13.632812 30.019531 16.414062 30.871094 C 17.59375 31.246094 17.59375 31.246094 18.792969 31.625 C 19.9375 31.972656 19.9375 31.972656 21.101562 32.328125 C 21.800781 32.542969 22.5 32.761719 23.21875 32.984375 C 25.542969 33.382812 27.066406 33.042969 29.292969 32.324219 C 27.003906 30.96875 24.710938 29.625 22.410156 28.28125 C 21.4375 27.703125 21.4375 27.703125 20.445312 27.113281 C 15.472656 24.230469 13.152344 23.464844 8.082031 26.261719 Z M 8.082031 26.261719 "/>
<path fill-rule="nonzero" fill="rgb(31.764706%, 31.764706%, 31.764706%)" fill-opacity="1" d="M 42.425781 42.425781 C 43.757812 42.425781 45.089844 42.425781 46.464844 42.425781 C 46.464844 43.425781 46.464844 44.425781 46.464844 45.453125 C 47.257812 45.683594 48.046875 45.914062 48.863281 46.148438 C 51.515625 47.476562 51.515625 47.476562 52.902344 49.875 C 53.554688 52.609375 53.488281 53.964844 52.523438 56.566406 C 51.859375 54.898438 51.191406 53.230469 50.503906 51.515625 C 48.132812 53.886719 47.746094 55.511719 46.84375 58.710938 C 46.582031 59.632812 46.316406 60.550781 46.046875 61.496094 C 45.851562 62.203125 45.65625 62.910156 45.453125 63.636719 C 44.789062 63.636719 44.121094 63.636719 43.433594 63.636719 C 42.769531 64.96875 42.101562 66.304688 41.414062 67.675781 C 40.242188 64.164062 40.699219 62.164062 41.414062 58.585938 C 40.414062 59.253906 39.414062 59.917969 38.382812 60.605469 C 37.382812 60.273438 36.382812 59.9375 35.355469 59.597656 C 36.019531 58.261719 36.6875 56.929688 37.375 55.554688 C 38.039062 55.554688 38.707031 55.554688 39.394531 55.554688 C 39.394531 54.554688 39.394531 53.554688 39.394531 52.523438 C 37.726562 53.191406 36.0625 53.859375 34.34375 54.546875 C 34.40625 52.335938 34.40625 52.335938 35.355469 49.496094 C 37.121094 48 38.945312 46.785156 40.914062 45.570312 C 41.410156 45.199219 41.910156 44.828125 42.425781 44.445312 C 42.425781 43.777344 42.425781 43.109375 42.425781 42.425781 Z M 42.425781 42.425781 "/>
<path fill-rule="nonzero" fill="rgb(33.333333%, 33.333333%, 33.333333%)" fill-opacity="1" d="M 90.910156 32.324219 C 91.574219 32.324219 92.242188 32.324219 92.929688 32.324219 C 92.597656 33.988281 92.261719 35.65625 91.917969 37.375 C 92.917969 37.707031 93.917969 38.039062 94.949219 38.382812 C 94.585938 38.945312 94.226562 39.503906 93.851562 40.082031 C 92.214844 42.625 90.582031 45.175781 88.953125 47.726562 C 88.097656 49.050781 88.097656 49.050781 87.226562 50.398438 C 86.683594 51.25 86.136719 52.105469 85.578125 52.984375 C 85.074219 53.765625 84.574219 54.546875 84.054688 55.355469 C 82.886719 57.46875 82.273438 59.253906 81.816406 61.617188 C 81.152344 61.617188 80.484375 61.617188 79.796875 61.617188 C 79.796875 60.949219 79.796875 60.28125 79.796875 59.597656 C 79.132812 59.597656 78.464844 59.597656 77.777344 59.597656 C 77.777344 58.929688 77.777344 58.261719 77.777344 57.574219 C 76.445312 57.574219 75.109375 57.574219 73.738281 57.574219 C 74.070312 56.910156 74.402344 56.242188 74.746094 55.554688 C 75.746094 55.890625 76.746094 56.222656 77.777344 56.566406 C 78.027344 55.875 78.277344 55.183594 78.535156 54.46875 C 80.015625 51 81.867188 47.835938 83.839844 44.632812 C 84.199219 44.03125 84.558594 43.425781 84.925781 42.804688 C 85.851562 41.292969 86.859375 39.832031 87.878906 38.382812 C 88.546875 38.382812 89.210938 38.382812 89.898438 38.382812 C 90.230469 36.382812 90.566406 34.382812 90.910156 32.324219 Z M 90.910156 32.324219 "/>
<path fill-rule="nonzero" fill="rgb(40%, 40%, 40%)" fill-opacity="1" d="M 16.160156 19.191406 C 19.3125 20.691406 22.292969 22.398438 25.253906 24.242188 C 24.585938 24.910156 23.917969 25.574219 23.230469 26.261719 C 23.566406 26.929688 23.898438 27.597656 24.242188 28.28125 C 25.242188 28.5 25.242188 28.5 26.261719 28.726562 C 26.929688 28.914062 27.597656 29.101562 28.28125 29.292969 C 28.617188 30.292969 28.949219 31.292969 29.292969 32.324219 C 25.429688 31.261719 22.503906 29.867188 19.253906 27.589844 C 16.035156 25.480469 15.257812 25.25 11.175781 25.316406 C 10.152344 25.628906 9.132812 25.941406 8.082031 26.261719 C 7.746094 26.929688 7.414062 27.597656 7.070312 28.28125 C 7.070312 27.617188 7.070312 26.949219 7.070312 26.261719 C 5.402344 26.261719 3.738281 26.261719 2.019531 26.261719 C 3.246094 22.585938 4.839844 21.761719 8.195312 20.003906 C 11.179688 18.730469 12.945312 18.613281 16.160156 19.191406 Z M 16.160156 19.191406 "/>
<path fill-rule="nonzero" fill="rgb(41.568627%, 41.568627%, 41.568627%)" fill-opacity="1" d="M 40.402344 60.605469 C 40.738281 61.9375 41.070312 63.273438 41.414062 64.644531 C 41.746094 64.980469 42.082031 65.3125 42.425781 65.65625 C 43.089844 64.988281 43.757812 64.324219 44.445312 63.636719 C 43.789062 68.285156 42.65625 72.570312 41.160156 77.019531 C 40.761719 78.253906 40.359375 79.488281 39.945312 80.761719 C 38.382812 83.839844 38.382812 83.839844 35.683594 85.273438 C 34.519531 85.5625 34.519531 85.5625 33.332031 85.859375 C 32 84.523438 30.667969 83.191406 29.292969 81.816406 C 31.625 82.152344 33.960938 82.484375 36.363281 82.828125 C 36.695312 81.828125 37.03125 80.828125 37.375 79.796875 C 36.707031 79.796875 36.039062 79.796875 35.355469 79.796875 C 35.355469 80.464844 35.355469 81.132812 35.355469 81.816406 C 34.019531 81.484375 32.6875 81.152344 31.3125 80.808594 C 31.644531 79.808594 31.980469 78.808594 32.324219 77.777344 C 32.988281 77.777344 33.65625 77.777344 34.34375 77.777344 C 36.34375 72.109375 38.34375 66.445312 40.402344 60.605469 Z M 40.402344 60.605469 "/>
<path fill-rule="nonzero" fill="rgb(36.862745%, 36.862745%, 36.862745%)" fill-opacity="1" d="M 1.011719 26.261719 C 1.214844 26.894531 1.421875 27.523438 1.632812 28.171875 C 3.652344 31.253906 5.679688 31.320312 9.21875 32.070312 C 10.324219 32.316406 11.429688 32.558594 12.570312 32.8125 C 13.421875 32.984375 14.273438 33.15625 15.152344 33.332031 C 14.183594 33.550781 14.183594 33.550781 13.195312 33.773438 C 11.136719 34.152344 11.136719 34.152344 10.101562 35.355469 C 10.625 36.046875 11.144531 36.742188 11.683594 37.457031 C 12.347656 38.367188 13.015625 39.277344 13.699219 40.214844 C 14.703125 41.566406 14.703125 41.566406 15.722656 42.949219 C 16.203125 43.777344 16.679688 44.601562 17.171875 45.453125 C 16.839844 46.453125 16.503906 47.453125 16.160156 48.484375 C 15.890625 47.859375 15.621094 47.234375 15.339844 46.589844 C 14.1875 44.140625 14.1875 44.140625 11.109375 42.425781 C 11.445312 44.089844 11.777344 45.757812 12.121094 47.476562 C 10.605469 46.085938 10.605469 46.085938 9.089844 44.445312 C 9.089844 43.777344 9.089844 43.109375 9.089844 42.425781 C 8.425781 42.425781 7.757812 42.425781 7.070312 42.425781 C 6.085938 40.679688 5.097656 38.9375 4.113281 37.195312 C 3.136719 35.535156 2.078125 33.925781 1.011719 32.324219 C 0.882812 29.105469 0.882812 29.105469 1.011719 26.261719 Z M 1.011719 26.261719 "/>
<path fill-rule="nonzero" fill="rgb(32.941176%, 32.941176%, 32.941176%)" fill-opacity="1" d="M 33.332031 30.304688 C 37.070312 31.691406 40.355469 33.398438 43.75 35.480469 C 44.640625 36.023438 45.535156 36.566406 46.453125 37.128906 C 47.457031 37.75 47.457031 37.75 48.484375 38.382812 C 46.464844 39.394531 46.464844 39.394531 44.382812 39.835938 C 43.734375 40.023438 43.089844 40.210938 42.425781 40.402344 C 42.089844 41.070312 41.757812 41.738281 41.414062 42.425781 C 37.175781 41.820312 33.324219 40.832031 29.292969 39.394531 C 31.703125 37.484375 33.40625 36.339844 36.363281 35.355469 C 36.695312 34.6875 37.03125 34.019531 37.375 33.332031 C 36.375 33.332031 35.375 33.332031 34.34375 33.332031 C 34.011719 32.332031 33.675781 31.332031 33.332031 30.304688 Z M 33.332031 30.304688 "/>
<path fill-rule="nonzero" fill="rgb(18.823529%, 18.823529%, 18.823529%)" fill-opacity="1" d="M 46.148438 38.761719 C 46.917969 38.972656 47.691406 39.179688 48.484375 39.394531 C 48.484375 40.0625 48.484375 40.726562 48.484375 41.414062 C 51.152344 41.414062 53.816406 41.414062 56.566406 41.414062 C 55.898438 42.746094 55.230469 44.082031 54.546875 45.453125 C 55.210938 45.789062 55.878906 46.121094 56.566406 46.464844 C 55.566406 46.464844 54.566406 46.464844 53.535156 46.464844 C 53.535156 47.464844 53.535156 48.464844 53.535156 49.496094 C 52.867188 49.496094 52.203125 49.496094 51.515625 49.496094 C 51.515625 48.828125 51.515625 48.160156 51.515625 47.476562 C 49.015625 46.476562 49.015625 46.476562 46.464844 45.453125 C 46.464844 44.453125 46.464844 43.453125 46.464844 42.425781 C 44.796875 42.425781 43.132812 42.425781 41.414062 42.425781 C 41.082031 41.757812 40.746094 41.089844 40.402344 40.402344 C 43.433594 38.382812 43.433594 38.382812 46.148438 38.761719 Z M 46.148438 38.761719 "/>
<path fill-rule="nonzero" fill="rgb(39.607843%, 39.607843%, 39.607843%)" fill-opacity="1" d="M 19.191406 61.617188 C 19.523438 62.28125 19.859375 62.949219 20.203125 63.636719 C 20.867188 63.304688 21.535156 62.96875 22.222656 62.625 C 23.222656 63.292969 24.222656 63.960938 25.253906 64.644531 C 24.917969 65.3125 24.585938 65.980469 24.242188 66.667969 C 23.242188 66.667969 22.242188 66.667969 21.210938 66.667969 C 21.0625 68.761719 21.0625 68.761719 22.222656 70.707031 C 21.554688 70.707031 20.890625 70.707031 20.203125 70.707031 C 19.867188 71.375 19.535156 72.039062 19.191406 72.726562 C 16.730469 72.03125 16.730469 72.03125 14.140625 70.707031 C 13.066406 68.308594 13.066406 68.308594 13.132812 65.65625 C 16.296875 61.617188 16.296875 61.617188 19.191406 61.617188 Z M 19.191406 61.617188 "/>
<path fill-rule="nonzero" fill="rgb(19.215686%, 19.215686%, 19.215686%)" fill-opacity="1" d="M 45.453125 46.464844 C 43.453125 47.464844 43.453125 47.464844 41.414062 48.484375 C 41.449219 49.105469 41.484375 49.726562 41.519531 50.367188 C 41.546875 51.183594 41.574219 52 41.605469 52.839844 C 41.640625 53.648438 41.675781 54.457031 41.710938 55.292969 C 41.351562 58.058594 40.511719 58.878906 38.382812 60.605469 C 37.382812 60.273438 36.382812 59.9375 35.355469 59.597656 C 36.019531 58.261719 36.6875 56.929688 37.375 55.554688 C 38.039062 55.554688 38.707031 55.554688 39.394531 55.554688 C 39.394531 54.554688 39.394531 53.554688 39.394531 52.523438 C 37.726562 53.191406 36.0625 53.859375 34.34375 54.546875 C 34.675781 51.464844 34.917969 49.914062 37.183594 47.726562 C 42.222656 44.847656 42.222656 44.847656 45.453125 46.464844 Z M 45.453125 46.464844 "/>
<path fill-rule="nonzero" fill="rgb(30.196078%, 30.196078%, 30.196078%)" fill-opacity="1" d="M 59.597656 33.332031 C 60.261719 33.667969 60.929688 34 61.617188 34.34375 C 61.617188 35.675781 61.617188 37.011719 61.617188 38.382812 C 60.949219 39.050781 60.28125 39.71875 59.597656 40.402344 C 60.261719 41.070312 60.929688 41.738281 61.617188 42.425781 C 59.261719 43.644531 57.074219 44.613281 54.546875 45.453125 C 54.546875 44.453125 54.546875 43.453125 54.546875 42.425781 C 51.546875 41.925781 51.546875 41.925781 48.484375 41.414062 C 48.484375 40.746094 48.484375 40.082031 48.484375 39.394531 C 50.289062 38.351562 52.101562 37.324219 53.914062 36.300781 C 54.921875 35.726562 55.929688 35.152344 56.96875 34.558594 C 57.835938 34.15625 58.703125 33.75 59.597656 33.332031 Z M 59.597656 33.332031 "/>
<path fill-rule="nonzero" fill="rgb(18.039216%, 18.039216%, 18.039216%)" fill-opacity="1" d="M 20.203125 25.253906 C 25.894531 24.695312 28.78125 26.078125 33.332031 29.292969 C 34.28125 31.566406 34.28125 31.566406 34.34375 33.332031 C 35.34375 33.332031 36.34375 33.332031 37.375 33.332031 C 36.363281 36.363281 36.363281 36.363281 33.964844 37.625 C 31.3125 38.382812 31.3125 38.382812 28.28125 37.375 C 28.949219 37.375 29.617188 37.375 30.304688 37.375 C 30.304688 36.707031 30.304688 36.039062 30.304688 35.355469 C 30.96875 35.019531 31.636719 34.6875 32.324219 34.34375 C 31.65625 33.886719 30.988281 33.425781 30.304688 32.953125 C 29.636719 32.414062 28.96875 31.871094 28.28125 31.3125 C 28.28125 30.644531 28.28125 29.980469 28.28125 29.292969 C 26.617188 28.960938 24.949219 28.625 23.230469 28.28125 C 23.230469 27.617188 23.230469 26.949219 23.230469 26.261719 C 22.230469 25.929688 21.230469 25.597656 20.203125 25.253906 Z M 20.203125 25.253906 "/>
<path fill-rule="nonzero" fill="rgb(31.372549%, 31.372549%, 31.372549%)" fill-opacity="1" d="M 19.191406 31.3125 C 21.171875 31.402344 23.148438 31.511719 25.125 31.628906 C 26.777344 31.714844 26.777344 31.714844 28.464844 31.804688 C 29.40625 31.976562 30.34375 32.148438 31.3125 32.324219 C 31.980469 33.324219 32.644531 34.324219 33.332031 35.355469 C 32.332031 35.355469 31.332031 35.355469 30.304688 35.355469 C 30.304688 36.019531 30.304688 36.6875 30.304688 37.375 C 26.609375 38.703125 24.160156 38.035156 20.453125 36.933594 C 19.460938 36.640625 18.464844 36.351562 17.441406 36.050781 C 16.308594 35.707031 16.308594 35.707031 15.152344 35.355469 C 16.484375 35.019531 17.816406 34.6875 19.191406 34.34375 C 19.191406 33.34375 19.191406 32.34375 19.191406 31.3125 Z M 19.191406 31.3125 "/>
<path fill-rule="nonzero" fill="rgb(32.156863%, 32.156863%, 32.156863%)" fill-opacity="1" d="M 11.109375 42.425781 C 13.066406 43.246094 13.066406 43.246094 15.152344 44.445312 C 15.484375 45.445312 15.816406 46.445312 16.160156 47.476562 C 16.828125 47.746094 17.496094 48.015625 18.183594 48.296875 C 18.847656 48.691406 19.515625 49.085938 20.203125 49.496094 C 20.960938 52.652344 20.960938 52.652344 21.210938 55.554688 C 18.183594 55.554688 18.183594 55.554688 15.59375 53.347656 C 12.46875 49.738281 11.109375 47.199219 11.109375 42.425781 Z M 11.109375 42.425781 "/>
<path fill-rule="nonzero" fill="rgb(29.411765%, 29.411765%, 29.411765%)" fill-opacity="1" d="M 78.789062 36.363281 C 72.316406 40.679688 65.230469 41.839844 57.574219 41.414062 C 58.585938 38.382812 58.585938 38.382812 60.28125 37.390625 C 66.726562 35.140625 72.085938 35.324219 78.789062 36.363281 Z M 78.789062 36.363281 "/>
<path fill-rule="nonzero" fill="rgb(32.54902%, 32.54902%, 32.54902%)" fill-opacity="1" d="M 35.355469 57.574219 C 36.019531 58.242188 36.6875 58.910156 37.375 59.597656 C 38.375 59.261719 39.375 58.929688 40.402344 58.585938 C 38.605469 62.671875 35.964844 66.121094 33.332031 69.695312 C 33 68.363281 32.667969 67.03125 32.324219 65.65625 C 30.988281 65.65625 29.65625 65.65625 28.28125 65.65625 C 28.617188 64.988281 28.949219 64.324219 29.292969 63.636719 C 29.960938 63.96875 30.625 64.304688 31.3125 64.644531 C 31.605469 63.855469 31.894531 63.0625 32.195312 62.246094 C 33.332031 59.597656 33.332031 59.597656 35.355469 57.574219 Z M 35.355469 57.574219 "/>
<path fill-rule="nonzero" fill="rgb(36.862745%, 36.862745%, 36.862745%)" fill-opacity="1" d="M 38.382812 73.738281 C 39.628906 77.46875 39.035156 80.003906 38.382812 83.839844 C 36.71875 84.503906 35.050781 85.171875 33.332031 85.859375 C 32 84.523438 30.667969 83.191406 29.292969 81.816406 C 31.625 82.152344 33.960938 82.484375 36.363281 82.828125 C 36.695312 81.828125 37.03125 80.828125 37.375 79.796875 C 36.707031 79.796875 36.039062 79.796875 35.355469 79.796875 C 35.355469 80.464844 35.355469 81.132812 35.355469 81.816406 C 34.019531 81.484375 32.6875 81.152344 31.3125 80.808594 C 31.644531 79.808594 31.980469 78.808594 32.324219 77.777344 C 32.988281 77.777344 33.65625 77.777344 34.34375 77.777344 C 35.730469 76.472656 37.082031 75.125 38.382812 73.738281 Z M 38.382812 73.738281 "/>
<path fill-rule="nonzero" fill="rgb(27.843137%, 27.843137%, 27.843137%)" fill-opacity="1" d="M 94.949219 24.242188 C 96.949219 24.742188 96.949219 24.742188 98.988281 25.253906 C 99.289062 30.324219 98.976562 33.226562 95.960938 37.375 C 93.628906 33.4375 93.488281 30.378906 94.445312 25.945312 C 94.609375 25.382812 94.777344 24.820312 94.949219 24.242188 Z M 94.949219 24.242188 "/>
<path fill-rule="nonzero" fill="rgb(31.764706%, 31.764706%, 31.764706%)" fill-opacity="1" d="M 14.140625 20.203125 C 12.855469 22.261719 11.503906 24.28125 10.101562 26.261719 C 9.433594 26.261719 8.769531 26.261719 8.082031 26.261719 C 7.746094 26.929688 7.414062 27.597656 7.070312 28.28125 C 7.070312 27.617188 7.070312 26.949219 7.070312 26.261719 C 5.402344 26.261719 3.738281 26.261719 2.019531 26.261719 C 3.03125 23.230469 3.03125 23.230469 5.238281 21.527344 C 8.453125 20.027344 10.636719 19.957031 14.140625 20.203125 Z M 14.140625 20.203125 "/>
<path fill-rule="nonzero" fill="rgb(41.176471%, 41.176471%, 41.176471%)" fill-opacity="1" d="M 9.089844 35.355469 C 12.378906 38.40625 14.933594 41.554688 17.171875 45.453125 C 16.839844 46.453125 16.503906 47.453125 16.160156 48.484375 C 15.890625 47.859375 15.621094 47.234375 15.339844 46.589844 C 14.1875 44.140625 14.1875 44.140625 11.109375 42.425781 C 11.445312 44.089844 11.777344 45.757812 12.121094 47.476562 C 10.605469 46.085938 10.605469 46.085938 9.089844 44.445312 C 9.089844 43.777344 9.089844 43.109375 9.089844 42.425781 C 8.425781 42.425781 7.757812 42.425781 7.070312 42.425781 C 7.402344 41.425781 7.738281 40.425781 8.082031 39.394531 C 8.425781 38.050781 8.765625 36.703125 9.089844 35.355469 Z M 9.089844 35.355469 "/>
<path fill-rule="nonzero" fill="rgb(40.392157%, 40.392157%, 40.392157%)" fill-opacity="1" d="M 33.332031 50.503906 C 34 50.839844 34.667969 51.171875 35.355469 51.515625 C 35.019531 52.515625 34.6875 53.515625 34.34375 54.546875 C 36.011719 53.878906 37.675781 53.210938 39.394531 52.523438 C 39.394531 53.523438 39.394531 54.523438 39.394531 55.554688 C 36.726562 56.554688 34.0625 57.554688 31.3125 58.585938 C 31.3125 57.585938 31.3125 56.585938 31.3125 55.554688 C 30.3125 55.222656 29.3125 54.890625 28.28125 54.546875 C 29.949219 53.210938 31.617188 51.878906 33.332031 50.503906 Z M 33.332031 50.503906 "/>
<path fill-rule="nonzero" fill="rgb(20.392157%, 20.392157%, 20.392157%)" fill-opacity="1" d="M 75.757812 27.273438 C 78.410156 27.082031 78.410156 27.082031 80.808594 27.273438 C 81.011719 30.933594 80.664062 33.195312 78.789062 36.363281 C 77.453125 36.03125 76.121094 35.695312 74.746094 35.355469 C 74.117188 33.019531 74.117188 33.019531 73.738281 30.304688 C 74.402344 29.304688 75.070312 28.304688 75.757812 27.273438 Z M 75.757812 27.273438 "/>
<path fill-rule="nonzero" fill="rgb(17.647059%, 17.647059%, 17.647059%)" fill-opacity="1" d="M 24.242188 58.585938 C 28.28125 63.382812 28.28125 63.382812 28.28125 65.65625 C 29.617188 65.65625 30.949219 65.65625 32.324219 65.65625 C 32.324219 66.988281 32.324219 68.324219 32.324219 69.695312 C 29.988281 69.570312 29.988281 69.570312 27.273438 68.6875 C 24.886719 64.984375 24.242188 63.03125 24.242188 58.585938 Z M 24.242188 58.585938 "/>
<path fill-rule="nonzero" fill="rgb(29.803922%, 29.803922%, 29.803922%)" fill-opacity="1" d="M 39.394531 46.464844 C 40.0625 46.796875 40.726562 47.132812 41.414062 47.476562 C 41.082031 49.140625 40.746094 50.808594 40.402344 52.523438 C 38.402344 53.191406 36.402344 53.859375 34.34375 54.546875 C 34.699219 51.269531 34.910156 49.882812 37.4375 47.664062 C 38.082031 47.269531 38.730469 46.871094 39.394531 46.464844 Z M 39.394531 46.464844 "/>
<path fill-rule="nonzero" fill="rgb(29.411765%, 29.411765%, 29.411765%)" fill-opacity="1" d="M 20.203125 25.253906 C 25.894531 24.695312 28.675781 26.3125 33.332031 29.292969 C 32.332031 29.960938 31.332031 30.625 30.304688 31.3125 C 30.304688 30.644531 30.304688 29.980469 30.304688 29.292969 C 28.304688 29.292969 26.304688 29.292969 24.242188 29.292969 C 23.910156 28.292969 23.574219 27.292969 23.230469 26.261719 C 22.230469 25.929688 21.230469 25.597656 20.203125 25.253906 Z M 20.203125 25.253906 "/>
<path fill-rule="nonzero" fill="rgb(29.803922%, 29.803922%, 29.803922%)" fill-opacity="1" d="M 21.210938 59.597656 C 25.082031 62.34375 26.660156 64.277344 28.28125 68.6875 C 29.28125 69.355469 30.28125 70.019531 31.3125 70.707031 C 28.914062 70.519531 28.914062 70.519531 26.261719 69.695312 C 24.9375 67.109375 24.9375 67.109375 24.242188 64.644531 C 23.242188 64.644531 22.242188 64.644531 21.210938 64.644531 C 20.546875 64.3125 19.878906 63.980469 19.191406 63.636719 C 19.191406 62.96875 19.191406 62.304688 19.191406 61.617188 C 19.859375 61.617188 20.523438 61.617188 21.210938 61.617188 C 21.210938 60.949219 21.210938 60.28125 21.210938 59.597656 Z M 21.210938 59.597656 "/>
<path fill-rule="nonzero" fill="rgb(39.215686%, 39.215686%, 39.215686%)" fill-opacity="1" d="M 78.789062 53.535156 C 79.789062 53.867188 80.789062 54.203125 81.816406 54.546875 C 81.816406 56.878906 81.816406 59.210938 81.816406 61.617188 C 81.152344 61.617188 80.484375 61.617188 79.796875 61.617188 C 79.796875 60.949219 79.796875 60.28125 79.796875 59.597656 C 79.132812 59.597656 78.464844 59.597656 77.777344 59.597656 C 77.777344 58.929688 77.777344 58.261719 77.777344 57.574219 C 76.445312 57.574219 75.109375 57.574219 73.738281 57.574219 C 74.070312 56.910156 74.402344 56.242188 74.746094 55.554688 C 75.746094 55.890625 76.746094 56.222656 77.777344 56.566406 C 78.109375 55.566406 78.445312 54.566406 78.789062 53.535156 Z M 78.789062 53.535156 "/>
<path fill-rule="nonzero" fill="rgb(20.784314%, 20.784314%, 20.784314%)" fill-opacity="1" d="M 18.183594 30.304688 C 18.515625 31.636719 18.847656 32.96875 19.191406 34.34375 C 12.375 33.585938 12.375 33.585938 10.101562 31.3125 C 12.835938 29.945312 15.160156 30.238281 18.183594 30.304688 Z M 18.183594 30.304688 "/>
<path fill-rule="nonzero" fill="rgb(17.254902%, 17.254902%, 17.254902%)" fill-opacity="1" d="M 29.292969 77.777344 C 29.960938 77.777344 30.625 77.777344 31.3125 77.777344 C 31.644531 78.777344 31.980469 79.777344 32.324219 80.808594 C 33.324219 81.140625 34.324219 81.476562 35.355469 81.816406 C 35.355469 81.152344 35.355469 80.484375 35.355469 79.796875 C 36.019531 79.796875 36.6875 79.796875 37.375 79.796875 C 37.039062 81.132812 36.707031 82.464844 36.363281 83.839844 C 32.953125 83.285156 31.230469 82.773438 28.28125 80.808594 C 28.617188 79.808594 28.949219 78.808594 29.292969 77.777344 Z M 29.292969 77.777344 "/>
<path fill-rule="nonzero" fill="rgb(46.27451%, 46.27451%, 46.27451%)" fill-opacity="1" d="M 85.859375 42.425781 C 86.191406 43.089844 86.523438 43.757812 86.867188 44.445312 C 86.535156 45.445312 86.203125 46.445312 85.859375 47.476562 C 86.523438 47.476562 87.191406 47.476562 87.878906 47.476562 C 87.878906 46.808594 87.878906 46.140625 87.878906 45.453125 C 88.546875 45.789062 89.210938 46.121094 89.898438 46.464844 C 88.566406 48.132812 87.230469 49.796875 85.859375 51.515625 C 85.523438 50.847656 85.191406 50.183594 84.847656 49.496094 C 83.847656 49.160156 82.847656 48.828125 81.816406 48.484375 C 83.152344 46.484375 84.484375 44.484375 85.859375 42.425781 Z M 85.859375 42.425781 "/>
<path fill-rule="nonzero" fill="rgb(43.921569%, 43.921569%, 43.921569%)" fill-opacity="1" d="M 27.273438 73.738281 C 28.605469 75.070312 29.9375 76.402344 31.3125 77.777344 C 30.3125 78.277344 30.3125 78.277344 29.292969 78.789062 C 29.292969 79.789062 29.292969 80.789062 29.292969 81.816406 C 26.101562 80.433594 25.261719 79.808594 23.230469 76.769531 C 24.566406 77.101562 25.898438 77.433594 27.273438 77.777344 C 27.273438 76.445312 27.273438 75.109375 27.273438 73.738281 Z M 27.273438 73.738281 "/>
<path fill-rule="nonzero" fill="rgb(39.215686%, 39.215686%, 39.215686%)" fill-opacity="1" d="M 32.324219 61.617188 C 32.65625 62.617188 32.988281 63.617188 33.332031 64.644531 C 34.332031 64.3125 35.332031 63.980469 36.363281 63.636719 C 34.597656 68.5625 34.597656 68.5625 32.324219 69.695312 C 32.324219 68.363281 32.324219 67.03125 32.324219 65.65625 C 30.988281 65.65625 29.65625 65.65625 28.28125 65.65625 C 28.617188 64.988281 28.949219 64.324219 29.292969 63.636719 C 29.960938 63.96875 30.625 64.304688 31.3125 64.644531 C 31.644531 63.644531 31.980469 62.644531 32.324219 61.617188 Z M 32.324219 61.617188 "/>
<path fill-rule="nonzero" fill="rgb(38.039216%, 38.039216%, 38.039216%)" fill-opacity="1" d="M 29.292969 32.324219 C 30.625 32.988281 31.960938 33.65625 33.332031 34.34375 C 32.332031 34.675781 31.332031 35.011719 30.304688 35.355469 C 30.304688 36.019531 30.304688 36.6875 30.304688 37.375 C 27.671875 38.3125 26.625 38.535156 23.988281 37.4375 C 23.40625 37.082031 22.824219 36.730469 22.222656 36.363281 C 24.554688 35.695312 26.890625 35.03125 29.292969 34.34375 C 29.292969 33.675781 29.292969 33.011719 29.292969 32.324219 Z M 29.292969 32.324219 "/>
<path fill-rule="nonzero" fill="rgb(18.823529%, 18.823529%, 18.823529%)" fill-opacity="1" d="M 64.773438 33.207031 C 65.730469 33.25 66.6875 33.289062 67.675781 33.332031 C 66.382812 35.058594 65.03125 36.742188 63.636719 38.382812 C 62.96875 38.382812 62.304688 38.382812 61.617188 38.382812 C 61.617188 37.71875 61.617188 37.050781 61.617188 36.363281 C 60.949219 36.03125 60.28125 35.695312 59.597656 35.355469 C 61.617188 33.332031 61.617188 33.332031 64.773438 33.207031 Z M 64.773438 33.207031 "/>
<path fill-rule="nonzero" fill="rgb(29.803922%, 29.803922%, 29.803922%)" fill-opacity="1" d="M 17.171875 20.203125 C 19.316406 21.148438 19.316406 21.148438 21.210938 22.222656 C 21.210938 22.890625 21.210938 23.554688 21.210938 24.242188 C 19.210938 24.574219 17.210938 24.910156 15.152344 25.253906 C 15.152344 23.917969 15.152344 22.585938 15.152344 21.210938 C 15.816406 20.878906 16.484375 20.546875 17.171875 20.203125 Z M 17.171875 20.203125 "/>
<path fill-rule="nonzero" fill="rgb(46.666667%, 46.666667%, 46.666667%)" fill-opacity="1" d="M 84.847656 63.636719 C 85.515625 64.304688 86.183594 64.96875 86.867188 65.65625 C 86.742188 68.183594 86.742188 68.183594 85.859375 70.707031 C 83.773438 72.03125 83.773438 72.03125 81.816406 72.726562 C 82.382812 69.351562 83.183594 66.632812 84.847656 63.636719 Z M 84.847656 63.636719 "/>
<path fill-rule="nonzero" fill="rgb(17.647059%, 17.647059%, 17.647059%)" fill-opacity="1" d="M 43.433594 58.585938 C 43.769531 58.585938 44.101562 58.585938 44.445312 58.585938 C 43.6875 65.402344 43.6875 65.402344 41.414062 67.675781 C 40.191406 64.003906 40.816406 62.992188 42.425781 59.597656 C 42.757812 59.261719 43.089844 58.929688 43.433594 58.585938 Z M 43.433594 58.585938 "/>
<path fill-rule="nonzero" fill="rgb(38.039216%, 38.039216%, 38.039216%)" fill-opacity="1" d="M 56.566406 38.382812 C 59.597656 39.394531 59.597656 39.394531 61.617188 42.425781 C 59.261719 43.644531 57.074219 44.613281 54.546875 45.453125 C 55.210938 43.121094 55.878906 40.789062 56.566406 38.382812 Z M 56.566406 38.382812 "/>
<path fill-rule="nonzero" fill="rgb(27.843137%, 27.843137%, 27.843137%)" fill-opacity="1" d="M 59.597656 69.695312 C 62.011719 72.113281 62.300781 73.410156 62.625 76.769531 C 61.960938 77.769531 61.292969 78.769531 60.605469 79.796875 C 58.984375 76.550781 59.539062 73.296875 59.597656 69.695312 Z M 59.597656 69.695312 "/>
<path fill-rule="nonzero" fill="rgb(23.529412%, 23.529412%, 23.529412%)" fill-opacity="1" d="M 27.273438 55.554688 C 28.605469 55.554688 29.9375 55.554688 31.3125 55.554688 C 31.3125 56.890625 31.3125 58.222656 31.3125 59.597656 C 29.644531 59.597656 27.980469 59.597656 26.261719 59.597656 C 26.597656 58.261719 26.929688 56.929688 27.273438 55.554688 Z M 27.273438 55.554688 "/>
<path fill-rule="nonzero" fill="rgb(18.431373%, 18.431373%, 18.431373%)" fill-opacity="1" d="M 6.0625 32.324219 C 7.394531 33.988281 8.726562 35.65625 10.101562 37.375 C 9.433594 38.707031 8.769531 40.039062 8.082031 41.414062 C 8.082031 40.746094 8.082031 40.082031 8.082031 39.394531 C 7.414062 39.394531 6.746094 39.394531 6.0625 39.394531 C 5.117188 36.351562 5.003906 35.488281 6.0625 32.324219 Z M 6.0625 32.324219 "/>
<path fill-rule="nonzero" fill="rgb(36.470588%, 36.470588%, 36.470588%)" fill-opacity="1" d="M 78.976562 74.117188 C 79.582031 74.324219 80.1875 74.53125 80.808594 74.746094 C 78.808594 76.082031 76.808594 77.414062 74.746094 78.789062 C 74.414062 77.789062 74.082031 76.789062 73.738281 75.757812 C 76.769531 73.738281 76.769531 73.738281 78.976562 74.117188 Z M 78.976562 74.117188 "/>
<path fill-rule="nonzero" fill="rgb(20.392157%, 20.392157%, 20.392157%)" fill-opacity="1" d="M 22.222656 72.726562 C 24.722656 73.226562 24.722656 73.226562 27.273438 73.738281 C 27.273438 75.070312 27.273438 76.402344 27.273438 77.777344 C 24.773438 76.777344 24.773438 76.777344 22.222656 75.757812 C 22.222656 74.757812 22.222656 73.757812 22.222656 72.726562 Z M 22.222656 72.726562 "/>
<path fill-rule="nonzero" fill="rgb(17.254902%, 17.254902%, 17.254902%)" fill-opacity="1" d="M 16.160156 63.636719 C 17.160156 63.96875 18.160156 64.304688 19.191406 64.644531 C 18.523438 66.3125 17.859375 67.980469 17.171875 69.695312 C 16.503906 69.695312 15.839844 69.695312 15.152344 69.695312 C 15.484375 67.695312 15.816406 65.695312 16.160156 63.636719 Z M 16.160156 63.636719 "/>
<path fill-rule="nonzero" fill="rgb(16.078431%, 16.078431%, 16.078431%)" fill-opacity="1" d="M 11.109375 42.425781 C 13.109375 43.425781 13.109375 43.425781 15.152344 44.445312 C 15.152344 45.777344 15.152344 47.109375 15.152344 48.484375 C 14.152344 48.152344 13.152344 47.816406 12.121094 47.476562 C 11.789062 45.808594 11.453125 44.140625 11.109375 42.425781 Z M 11.109375 42.425781 "/>
<path fill-rule="nonzero" fill="rgb(38.431373%, 38.431373%, 38.431373%)" fill-opacity="1" d="M 59.597656 33.332031 C 60.261719 33.667969 60.929688 34 61.617188 34.34375 C 61.617188 35.675781 61.617188 37.011719 61.617188 38.382812 C 59.28125 38.050781 56.949219 37.71875 54.546875 37.375 C 56.210938 36.039062 57.878906 34.707031 59.597656 33.332031 Z M 59.597656 33.332031 "/>
<path fill-rule="nonzero" fill="rgb(40.392157%, 40.392157%, 40.392157%)" fill-opacity="1" d="M 83.839844 19.191406 C 89.308594 18.820312 89.308594 18.820312 92.296875 20.707031 C 92.839844 21.207031 93.382812 21.707031 93.9375 22.222656 C 90.152344 23.359375 90.152344 23.359375 87.878906 22.222656 C 87.878906 21.554688 87.878906 20.890625 87.878906 20.203125 C 86.546875 19.867188 85.210938 19.535156 83.839844 19.191406 Z M 83.839844 19.191406 "/>
</svg>
