<?xml version="1.0" encoding="UTF-8"?>
<svg xmlns="http://www.w3.org/2000/svg" xmlns:xlink="http://www.w3.org/1999/xlink" width="100" height="100" viewBox="0 0 100 100">
<path fill-rule="nonzero" fill="rgb(0%, 0%, 0%)" fill-opacity="1" d="M 93.90625 42.59375 C 94.273438 42.597656 94.636719 42.597656 95.003906 42.597656 C 95.890625 42.601562 96.777344 42.601562 97.664062 42.605469 C 97.6875 43.070312 97.714844 43.535156 97.738281 43.996094 C 97.753906 44.347656 97.773438 44.699219 97.792969 45.050781 C 98.339844 56.054688 96.621094 67.664062 91.828125 77.625 C 91.753906 77.777344 91.683594 77.929688 91.605469 78.089844 C 90.574219 80.207031 89.335938 82.152344 87.9375 84.046875 C 87.738281 84.316406 87.738281 84.316406 87.535156 84.59375 C 84.5625 88.410156 80.929688 91.367188 76.652344 93.578125 C 76.535156 93.640625 76.414062 93.703125 76.292969 93.769531 C 71.675781 96.140625 66.300781 97.320312 61.125 97.296875 C 60.804688 97.292969 60.804688 97.292969 60.476562 97.292969 C 59.800781 97.292969 59.125 97.289062 58.449219 97.289062 C 57.988281 97.289062 57.53125 97.285156 57.070312 97.285156 C 55.945312 97.285156 54.820312 97.28125 53.695312 97.277344 C 53.382812 96.277344 53.199219 95.324219 53.09375 94.285156 C 53.066406 94.046875 53.066406 94.046875 53.042969 93.804688 C 52.84375 91.660156 52.851562 89.507812 52.859375 87.355469 C 52.859375 87.136719 52.859375 86.917969 52.859375 86.691406 C 52.867188 83.4375 52.957031 80.253906 53.5 77.042969 C 53.535156 76.835938 53.570312 76.628906 53.601562 76.417969 C 55.320312 65.988281 59.835938 56.019531 68.546875 49.65625 C 74.277344 45.613281 80.855469 43.6875 87.742188 42.800781 C 87.902344 42.78125 88.058594 42.761719 88.21875 42.738281 C 90.105469 42.527344 92.011719 42.585938 93.90625 42.59375 Z M 86.515625 50.121094 C 86.3125 50.15625 86.109375 50.191406 85.902344 50.226562 C 77.929688 51.65625 71.054688 55.363281 66.308594 62.027344 C 64.507812 64.636719 63.277344 67.433594 62.257812 70.429688 C 62.207031 70.566406 62.160156 70.703125 62.113281 70.847656 C 60.988281 74.144531 60.050781 78.019531 60.105469 81.515625 C 60.105469 81.664062 60.109375 81.8125 60.109375 81.96875 C 60.113281 82.074219 60.113281 82.183594 60.117188 82.296875 C 60.632812 81.820312 60.996094 81.300781 61.375 80.714844 C 61.507812 80.519531 61.636719 80.320312 61.769531 80.117188 C 61.976562 79.804688 61.976562 79.804688 62.183594 79.488281 C 63.265625 77.851562 64.347656 76.246094 65.5625 74.707031 C 65.6875 74.550781 65.808594 74.394531 65.933594 74.234375 C 69.925781 69.15625 74.394531 64.617188 80.542969 62.257812 C 80.421875 62.414062 80.300781 62.570312 80.171875 62.730469 C 79.691406 63.339844 79.210938 63.949219 78.734375 64.5625 C 78.402344 64.984375 78.070312 65.402344 77.738281 65.824219 C 76.207031 67.769531 74.738281 69.746094 73.347656 71.789062 C 73.234375 71.953125 73.234375 71.953125 73.121094 72.117188 C 69.953125 76.777344 66.90625 81.488281 64.214844 86.441406 C 64.101562 86.652344 63.988281 86.859375 63.867188 87.074219 C 63.339844 88.0625 62.890625 88.980469 62.644531 90.078125 C 63.816406 90.113281 64.878906 89.996094 66.027344 89.761719 C 66.195312 89.726562 66.363281 89.691406 66.539062 89.65625 C 73.703125 88.117188 79.539062 84.042969 83.546875 77.917969 C 88.632812 69.808594 90.976562 59.328125 90.660156 49.804688 C 89.246094 49.761719 87.910156 49.882812 86.515625 50.121094 Z M 86.515625 50.121094 "/>
<path fill-rule="nonzero" fill="rgb(0%, 0%, 0%)" fill-opacity="1" d="M 2.335938 35.992188 C 14.234375 35.6875 26.222656 40.707031 34.890625 48.667969 C 35.9375 49.683594 36.847656 50.800781 37.742188 51.945312 C 37.828125 52.054688 37.914062 52.164062 38 52.277344 C 39.398438 54.082031 40.585938 55.949219 41.632812 57.976562 C 41.714844 58.128906 41.792969 58.28125 41.875 58.4375 C 46.085938 66.628906 47.503906 75.96875 46.996094 85.105469 C 46.984375 85.3125 46.984375 85.3125 46.972656 85.527344 C 46.9375 86.109375 46.878906 86.601562 46.691406 87.160156 C 38.398438 88.714844 28.414062 86.316406 21.507812 81.597656 C 10.457031 73.78125 5.410156 60.863281 3.1875 47.9375 C 2.730469 45.125 2.449219 42.3125 2.273438 39.46875 C 2.261719 39.257812 2.261719 39.257812 2.246094 39.039062 C 2.222656 38.640625 2.199219 38.238281 2.179688 37.839844 C 2.167969 37.609375 2.152344 37.378906 2.140625 37.140625 C 2.140625 36.574219 2.140625 36.574219 2.335938 35.992188 Z M 9.726562 43.96875 C 10.96875 53.472656 13.609375 63.246094 20.039062 70.621094 C 20.289062 70.910156 20.289062 70.910156 20.542969 71.203125 C 24.652344 75.878906 30.574219 79.113281 36.769531 79.960938 C 36.964844 79.898438 37.15625 79.832031 37.355469 79.765625 C 33.613281 72.667969 29.058594 66.066406 24.289062 59.628906 C 23.65625 58.773438 23.027344 57.917969 22.398438 57.066406 C 22.167969 56.75 21.9375 56.4375 21.707031 56.125 C 21.539062 55.898438 21.371094 55.671875 21.207031 55.449219 C 24.894531 55.449219 29.125 60.03125 31.566406 62.453125 C 32.730469 63.628906 33.824219 64.828125 34.824219 66.148438 C 34.9375 66.292969 35.050781 66.441406 35.164062 66.59375 C 35.554688 67.105469 35.945312 67.617188 36.332031 68.128906 C 36.457031 68.292969 36.582031 68.457031 36.710938 68.628906 C 37.429688 69.589844 38.09375 70.566406 38.714844 71.59375 C 39.066406 70.554688 38.640625 69.609375 38.351562 68.59375 C 38.257812 68.265625 38.257812 68.265625 38.164062 67.933594 C 35.726562 59.644531 30.53125 52.707031 22.960938 48.476562 C 18.785156 46.203125 14.433594 44.6875 9.726562 43.96875 Z M 9.726562 43.96875 "/>
<path fill-rule="nonzero" fill="rgb(0%, 0%, 0%)" fill-opacity="1" d="M 50.269531 1.945312 C 50.949219 2.207031 51.398438 2.636719 51.910156 3.136719 C 52.117188 3.332031 52.324219 3.53125 52.53125 3.726562 C 52.628906 3.824219 52.730469 3.917969 52.832031 4.015625 C 53.1875 4.351562 53.554688 4.667969 53.925781 4.984375 C 55.511719 6.367188 56.871094 7.886719 58.171875 9.53125 C 58.328125 9.730469 58.488281 9.925781 58.652344 10.128906 C 61.382812 13.550781 63.515625 17.535156 64.589844 21.789062 C 64.652344 22.027344 64.714844 22.261719 64.777344 22.507812 C 66.566406 30.675781 63.996094 38.839844 59.605469 45.703125 C 57.066406 49.582031 54 53.296875 50.390625 56.226562 C 49.625 55.917969 49.15625 55.414062 48.589844 54.828125 C 47.96875 54.191406 47.347656 53.574219 46.667969 53.003906 C 45.746094 52.207031 44.953125 51.316406 44.164062 50.390625 C 44.023438 50.222656 44.023438 50.222656 43.875 50.054688 C 37.929688 43.054688 34.121094 34.910156 34.863281 25.574219 C 35.839844 16.8125 41.375 8.792969 48.066406 3.28125 C 48.386719 3.03125 48.703125 2.777344 49.027344 2.527344 C 49.15625 2.414062 49.285156 2.296875 49.414062 2.179688 C 49.804688 1.945312 49.804688 1.945312 50.269531 1.945312 Z M 50 11.480469 C 49.777344 11.703125 49.550781 11.925781 49.328125 12.152344 C 49.125 12.351562 48.921875 12.550781 48.714844 12.75 C 47.859375 13.574219 47.160156 14.449219 46.484375 15.429688 C 46.382812 15.578125 46.28125 15.722656 46.179688 15.875 C 45.894531 16.289062 45.613281 16.703125 45.332031 17.121094 C 45.214844 17.289062 45.097656 17.457031 44.976562 17.632812 C 43.476562 19.929688 42.484375 22.789062 42.023438 25.488281 C 41.980469 25.730469 41.933594 25.976562 41.890625 26.226562 C 41.863281 26.5 41.84375 26.769531 41.828125 27.042969 C 41.816406 27.257812 41.804688 27.472656 41.789062 27.691406 C 41.609375 33.71875 44.289062 39.382812 48.054688 43.96875 C 48.117188 43.96875 48.183594 43.96875 48.25 43.96875 C 48.3125 43.421875 48.371094 42.875 48.429688 42.328125 C 48.449219 42.179688 48.464844 42.03125 48.484375 41.878906 C 48.796875 38.964844 48.871094 36.039062 48.929688 33.113281 C 48.941406 32.535156 48.953125 31.960938 48.96875 31.382812 C 49.007812 29.480469 49.042969 27.582031 49.027344 25.679688 C 52.238281 30.53125 52.820312 36.746094 53.113281 42.414062 C 53.761719 41.648438 54.257812 40.851562 54.742188 39.980469 C 54.820312 39.84375 54.894531 39.707031 54.972656 39.5625 C 56.488281 36.804688 57.730469 33.878906 58.171875 30.738281 C 58.199219 30.5625 58.222656 30.386719 58.25 30.203125 C 58.863281 24.75 56.96875 19.515625 53.671875 15.21875 C 53.234375 14.679688 52.789062 14.148438 52.335938 13.617188 C 52.175781 13.433594 52.019531 13.25 51.855469 13.058594 C 51.0625 12.074219 51.0625 12.074219 50 11.480469 Z M 50 11.480469 "/>
</svg>
