<?xml version="1.0" encoding="UTF-8"?>
<svg xmlns="http://www.w3.org/2000/svg" xmlns:xlink="http://www.w3.org/1999/xlink" width="100" height="100" viewBox="0 0 100 100">
<path fill-rule="nonzero" fill="rgb(99.607843%, 99.607843%, 99.607843%)" fill-opacity="1" d="M 0 0 C 33 0 66 0 100 0 C 100 33 100 66 100 100 C 67 100 34 100 0 100 C 0 67 0 34 0 0 Z M 0 0 "/>
<path fill-rule="nonzero" fill="rgb(99.215686%, 99.607843%, 99.607843%)" fill-opacity="1" d="M 48.234375 54.652344 C 50.175781 54.652344 52.117188 54.652344 54.117188 54.652344 C 54.117188 55.417969 54.117188 56.1875 54.117188 56.976562 C 54.894531 56.976562 55.671875 56.976562 56.46875 56.976562 C 57.246094 58.128906 58.023438 59.277344 58.824219 60.464844 C 61.976562 60.929688 61.976562 60.929688 65.671875 60.765625 C 67.746094 60.738281 67.746094 60.738281 69.863281 60.714844 C 72.042969 60.664062 72.042969 60.664062 74.265625 60.609375 C 77.109375 60.558594 79.957031 60.515625 82.804688 60.472656 C 84.070312 60.445312 85.335938 60.417969 86.640625 60.386719 C 91.113281 60.476562 95.5625 61.078125 100 61.628906 C 100 74.289062 100 86.953125 100 100 C 67 100 34 100 0 100 C 0 91.941406 0 83.882812 0 75.582031 C 2.328125 75.582031 4.660156 75.582031 7.058594 75.582031 C 7.058594 71.359375 7.058594 67.140625 7.058594 62.789062 C 8.625 62.828125 8.625 62.828125 10.222656 62.863281 C 14.109375 62.945312 17.992188 63.003906 21.878906 63.046875 C 23.558594 63.070312 25.238281 63.101562 26.917969 63.140625 C 29.335938 63.199219 31.753906 63.222656 34.171875 63.246094 C 35.625 63.269531 37.082031 63.292969 38.578125 63.320312 C 43.058594 62.691406 44.375 61.664062 47.058594 58.140625 C 47.445312 56.988281 47.835938 55.835938 48.234375 54.652344 Z M 48.234375 54.652344 "/>
<path fill-rule="nonzero" fill="rgb(11.764706%, 33.72549%, 54.117647%)" fill-opacity="1" d="M 1.175781 29.070312 C 7.65625 28.972656 14.132812 28.878906 20.808594 28.777344 C 23.859375 28.714844 23.859375 28.714844 26.976562 28.652344 C 28.601562 28.636719 30.226562 28.625 31.851562 28.617188 C 32.6875 28.589844 33.519531 28.566406 34.378906 28.542969 C 38.675781 28.539062 40.984375 28.945312 44.625 31.277344 C 48.761719 35.429688 48.488281 38.996094 48.53125 44.550781 C 48.558594 46.078125 48.589844 47.609375 48.621094 49.1875 C 48.214844 53.699219 47.5625 55.808594 44.707031 59.300781 C 40.578125 62.015625 36.949219 61.898438 32.078125 61.855469 C 30.554688 61.847656 29.027344 61.839844 27.457031 61.832031 C 25.855469 61.8125 24.25 61.792969 22.648438 61.773438 C 21.023438 61.761719 19.402344 61.75 17.78125 61.742188 C 13.8125 61.714844 9.847656 61.675781 5.882812 61.628906 C 5.882812 66.234375 5.882812 70.835938 5.882812 75.582031 C 4.328125 75.582031 2.777344 75.582031 1.175781 75.582031 C 1.175781 60.234375 1.175781 44.882812 1.175781 29.070312 Z M 1.175781 29.070312 "/>
<path fill-rule="nonzero" fill="rgb(94.901961%, 98.431373%, 98.039216%)" fill-opacity="1" d="M 58.824219 23.253906 C 60.375 23.253906 61.929688 23.253906 63.53125 23.253906 C 63.917969 24.40625 64.304688 25.558594 64.707031 26.746094 C 68.359375 26.941406 72.007812 27.132812 75.660156 27.324219 C 76.699219 27.382812 77.734375 27.4375 78.804688 27.492188 C 79.800781 27.546875 80.796875 27.597656 81.824219 27.652344 C 83.203125 27.726562 83.203125 27.726562 84.605469 27.800781 C 86.597656 27.886719 88.59375 27.90625 90.589844 27.90625 C 92.53125 27.90625 94.46875 27.90625 96.46875 27.90625 C 96.46875 38.265625 96.46875 48.628906 96.46875 59.300781 C 97.636719 59.300781 98.800781 59.300781 100 59.300781 C 100 60.070312 100 60.835938 100 61.628906 C 94.199219 61.742188 88.402344 61.828125 82.601562 61.882812 C 80.628906 61.90625 78.65625 61.9375 76.683594 61.980469 C 73.847656 62.035156 71.011719 62.0625 68.175781 62.082031 C 67.292969 62.105469 66.410156 62.128906 65.5 62.15625 C 61.730469 62.15625 59.441406 62.148438 56.511719 59.675781 C 55.066406 56.46875 54.789062 54.050781 54.691406 50.539062 C 54.648438 49.3125 54.609375 48.082031 54.566406 46.816406 C 54.539062 45.542969 54.511719 44.265625 54.484375 42.949219 C 54.445312 41.667969 54.40625 40.390625 54.363281 39.070312 C 54.226562 34.570312 54.117188 30.082031 54.117188 25.582031 C 55.671875 25.582031 57.222656 25.582031 58.824219 25.582031 C 58.824219 24.8125 58.824219 24.046875 58.824219 23.253906 Z M 58.824219 23.253906 "/>
<path fill-rule="nonzero" fill="rgb(97.254902%, 98.823529%, 98.823529%)" fill-opacity="1" d="M 5.882812 34.882812 C 11.105469 34.757812 16.320312 34.667969 21.542969 34.59375 C 23.03125 34.554688 24.515625 34.515625 26.046875 34.476562 C 28.179688 34.453125 28.179688 34.453125 30.355469 34.429688 C 31.667969 34.40625 32.976562 34.378906 34.332031 34.355469 C 37.648438 34.882812 37.648438 34.882812 39.839844 37.058594 C 41.453125 40.050781 41.609375 42.042969 41.542969 45.421875 C 41.539062 46.417969 41.535156 47.414062 41.53125 48.441406 C 41.175781 51.164062 41.175781 51.164062 38.824219 54.652344 C 35.085938 55.882812 32.441406 55.945312 28.515625 55.925781 C 27.199219 55.921875 25.882812 55.921875 24.527344 55.917969 C 23.15625 55.90625 21.78125 55.898438 20.367188 55.886719 C 18.980469 55.882812 17.59375 55.875 16.164062 55.871094 C 12.738281 55.855469 9.308594 55.835938 5.882812 55.8125 C 5.882812 48.90625 5.882812 42 5.882812 34.882812 Z M 5.882812 34.882812 "/>
<path fill-rule="nonzero" fill="rgb(8.235294%, 31.764706%, 53.72549%)" fill-opacity="1" d="M 60 25.582031 C 63.242188 27.183594 64.261719 29.320312 66.175781 32.339844 C 66.835938 33.355469 67.5 34.371094 68.179688 35.414062 C 69.410156 38.371094 69.410156 38.371094 68.4375 41.074219 C 67.984375 41.71875 67.527344 42.359375 67.058594 43.023438 C 64.148438 41.871094 64.148438 41.871094 61.175781 40.699219 C 61.566406 45.6875 61.953125 50.675781 62.351562 55.8125 C 71.671875 55.8125 80.988281 55.8125 90.589844 55.8125 C 90.199219 48.90625 89.8125 42 89.410156 34.882812 C 84.757812 33.734375 80.347656 33.339844 75.589844 33.066406 C 74.769531 33.015625 73.949219 32.964844 73.101562 32.914062 C 71.085938 32.792969 69.074219 32.675781 67.058594 32.558594 C 66.671875 31.40625 66.28125 30.253906 65.882812 29.070312 C 66.941406 29.078125 66.941406 29.078125 68.023438 29.089844 C 71.207031 29.113281 74.390625 29.128906 77.574219 29.140625 C 78.6875 29.152344 79.796875 29.160156 80.945312 29.171875 C 82.003906 29.175781 83.058594 29.179688 84.148438 29.183594 C 85.128906 29.1875 86.109375 29.195312 87.117188 29.203125 C 89.417969 29.320312 89.417969 29.320312 90.589844 27.90625 C 92.53125 27.90625 94.46875 27.90625 96.46875 27.90625 C 96.46875 38.265625 96.46875 48.628906 96.46875 59.300781 C 97.636719 59.300781 98.800781 59.300781 100 59.300781 C 100 60.070312 100 60.835938 100 61.628906 C 94.199219 61.742188 88.402344 61.828125 82.601562 61.882812 C 80.628906 61.90625 78.65625 61.9375 76.683594 61.980469 C 73.847656 62.035156 71.011719 62.0625 68.175781 62.082031 C 67.292969 62.105469 66.410156 62.128906 65.5 62.15625 C 59.433594 62.15625 59.433594 62.15625 56.507812 59.621094 C 54.316406 54.847656 54.738281 50.074219 54.78125 44.914062 C 54.757812 43.828125 54.730469 42.742188 54.707031 41.625 C 54.714844 34.746094 55.476562 30.875 60 25.582031 Z M 60 25.582031 "/>
<path fill-rule="nonzero" fill="rgb(6.27451%, 30.588235%, 54.901961%)" fill-opacity="1" d="M 1.175781 29.070312 C 14.375 29.070312 27.578125 29.070312 41.175781 29.070312 C 41.953125 30.988281 42.730469 32.90625 43.53125 34.882812 C 42.703125 34.699219 41.878906 34.515625 41.027344 34.324219 C 37.523438 33.699219 34.195312 33.480469 30.640625 33.351562 C 29.332031 33.304688 28.023438 33.253906 26.675781 33.207031 C 25.320312 33.160156 23.96875 33.113281 22.574219 33.066406 C 21.195312 33.015625 19.820312 32.964844 18.402344 32.914062 C 15.015625 32.792969 11.625 32.671875 8.234375 32.558594 C 8.234375 33.324219 8.234375 34.09375 8.234375 34.882812 C 7.457031 34.882812 6.683594 34.882812 5.882812 34.882812 C 6.046875 38.25 6.222656 41.617188 6.398438 44.984375 C 6.441406 45.933594 6.488281 46.882812 6.539062 47.863281 C 6.785156 52.554688 7.109375 57.042969 8.234375 61.628906 C 7.457031 61.628906 6.683594 61.628906 5.882812 61.628906 C 5.882812 66.234375 5.882812 70.835938 5.882812 75.582031 C 4.328125 75.582031 2.777344 75.582031 1.175781 75.582031 C 1.175781 60.234375 1.175781 44.882812 1.175781 29.070312 Z M 1.175781 29.070312 "/>
<path fill-rule="nonzero" fill="rgb(17.254902%, 37.254902%, 54.509804%)" fill-opacity="1" d="M 90.589844 27.90625 C 92.53125 27.90625 94.46875 27.90625 96.46875 27.90625 C 96.46875 38.265625 96.46875 48.628906 96.46875 59.300781 C 97.636719 59.300781 98.800781 59.300781 100 59.300781 C 100 60.070312 100 60.835938 100 61.628906 C 96.894531 61.628906 93.789062 61.628906 90.589844 61.628906 C 90.199219 60.476562 89.8125 59.324219 89.410156 58.140625 C 81.257812 58.140625 73.105469 58.140625 64.707031 58.140625 C 64.707031 57.753906 64.707031 57.371094 64.707031 56.976562 C 73.246094 56.59375 81.789062 56.210938 90.589844 55.8125 C 90.199219 48.90625 89.8125 42 89.410156 34.882812 C 84.757812 33.734375 80.347656 33.339844 75.589844 33.066406 C 74.769531 33.015625 73.949219 32.964844 73.101562 32.914062 C 71.085938 32.792969 69.074219 32.675781 67.058594 32.558594 C 66.671875 31.40625 66.28125 30.253906 65.882812 29.070312 C 66.941406 29.078125 66.941406 29.078125 68.023438 29.089844 C 71.207031 29.113281 74.390625 29.128906 77.574219 29.140625 C 78.6875 29.152344 79.796875 29.160156 80.945312 29.171875 C 82.003906 29.175781 83.058594 29.179688 84.148438 29.183594 C 85.128906 29.1875 86.109375 29.195312 87.117188 29.203125 C 89.417969 29.320312 89.417969 29.320312 90.589844 27.90625 Z M 90.589844 27.90625 "/>
<path fill-rule="nonzero" fill="rgb(80.784314%, 90.196078%, 96.078431%)" fill-opacity="1" d="M 54.117188 32.558594 C 54.507812 32.558594 54.894531 32.558594 55.292969 32.558594 C 55.292969 40.617188 55.292969 48.675781 55.292969 56.976562 C 54.710938 55.824219 54.710938 55.824219 54.117188 54.652344 C 52.175781 54.652344 50.234375 54.652344 48.234375 54.652344 C 48.136719 55.324219 48.042969 55.996094 47.941406 56.6875 C 46.75 60.222656 45.324219 61.652344 42.351562 63.953125 C 38.578125 64.375 38.578125 64.375 34.171875 64.152344 C 33.007812 64.105469 33.007812 64.105469 31.820312 64.054688 C 29.347656 63.945312 26.878906 63.804688 24.410156 63.664062 C 22.734375 63.582031 21.054688 63.507812 19.375 63.429688 C 15.269531 63.242188 11.164062 63.023438 7.058594 62.789062 C 7.058594 67.011719 7.058594 71.234375 7.058594 75.582031 C 6.671875 75.582031 6.28125 75.582031 5.882812 75.582031 C 5.882812 70.976562 5.882812 66.371094 5.882812 61.628906 C 6.886719 61.609375 7.886719 61.59375 8.921875 61.578125 C 12.660156 61.503906 16.398438 61.417969 20.136719 61.324219 C 21.75 61.285156 23.363281 61.25 24.980469 61.226562 C 27.308594 61.1875 29.636719 61.125 31.960938 61.058594 C 33.359375 61.03125 34.757812 61 36.199219 60.96875 C 40.332031 60.421875 42.601562 59.488281 45.882812 56.976562 C 47.277344 52.835938 47.472656 48.867188 47.71875 44.550781 C 47.796875 43.324219 47.796875 43.324219 47.875 42.078125 C 48 40.066406 48.117188 38.054688 48.234375 36.046875 C 48.816406 37.199219 48.816406 37.199219 49.410156 38.371094 C 50.1875 38.371094 50.964844 38.371094 51.765625 38.371094 C 51.765625 37.605469 51.765625 36.835938 51.765625 36.046875 C 52.542969 36.046875 53.316406 36.046875 54.117188 36.046875 C 54.117188 34.894531 54.117188 33.746094 54.117188 32.558594 Z M 54.117188 32.558594 "/>
<path fill-rule="nonzero" fill="rgb(70.196078%, 83.921569%, 93.72549%)" fill-opacity="1" d="M 0 25.582031 C 6.285156 25.75 12.570312 25.917969 19.042969 26.089844 C 22.003906 26.164062 22.003906 26.164062 25.023438 26.242188 C 26.601562 26.285156 28.179688 26.332031 29.757812 26.375 C 30.96875 26.40625 30.96875 26.40625 32.207031 26.433594 C 36.480469 26.5625 40.589844 26.703125 44.707031 27.90625 C 47.425781 30.886719 47.425781 30.886719 49.410156 33.722656 C 48.636719 34.488281 47.859375 35.253906 47.058594 36.046875 C 46.28125 35.105469 45.503906 34.160156 44.699219 33.191406 C 40.390625 29.574219 37.261719 29.378906 31.851562 29.410156 C 31.070312 29.394531 30.292969 29.375 29.488281 29.359375 C 26.59375 29.304688 23.703125 29.300781 20.808594 29.289062 C 14.332031 29.214844 7.851562 29.144531 1.175781 29.070312 C 1.175781 44.417969 1.175781 59.765625 1.175781 75.582031 C 0.789062 75.582031 0.398438 75.582031 0 75.582031 C 0 59.082031 0 42.582031 0 25.582031 Z M 0 25.582031 "/>
<path fill-rule="nonzero" fill="rgb(3.137255%, 31.764706%, 58.039216%)" fill-opacity="1" d="M 42.351562 40.699219 C 43.90625 40.699219 45.457031 40.699219 47.058594 40.699219 C 45.925781 51.640625 45.925781 51.640625 44.707031 56.976562 C 42.375 57.359375 40.046875 57.746094 37.648438 58.140625 C 37.648438 58.90625 37.648438 59.675781 37.648438 60.464844 C 29.105469 60.464844 20.566406 60.464844 11.765625 60.464844 C 11.765625 59.3125 11.765625 58.164062 11.765625 56.976562 C 12.851562 56.953125 12.851562 56.953125 13.957031 56.925781 C 17.246094 56.839844 20.535156 56.726562 23.824219 56.613281 C 24.960938 56.585938 26.101562 56.5625 27.273438 56.535156 C 28.375 56.492188 29.472656 56.453125 30.605469 56.410156 C 31.617188 56.378906 32.628906 56.347656 33.667969 56.316406 C 37.035156 55.710938 38.699219 54.628906 41.175781 52.324219 C 41.996094 49.425781 41.996094 49.425781 42.058594 46.292969 C 42.125 45.246094 42.191406 44.199219 42.261719 43.117188 C 42.292969 42.320312 42.320312 41.519531 42.351562 40.699219 Z M 42.351562 40.699219 "/>
<path fill-rule="nonzero" fill="rgb(40%, 55.294118%, 67.45098%)" fill-opacity="1" d="M 60 25.582031 C 63.242188 27.183594 64.261719 29.320312 66.175781 32.339844 C 66.835938 33.355469 67.5 34.371094 68.179688 35.414062 C 69.410156 38.371094 69.410156 38.371094 68.4375 41.074219 C 67.984375 41.71875 67.527344 42.359375 67.058594 43.023438 C 64.148438 41.871094 64.148438 41.871094 61.175781 40.699219 C 61.175781 45.300781 61.175781 49.90625 61.175781 54.652344 C 60.789062 54.652344 60.398438 54.652344 60 54.652344 C 60 49.664062 60 44.675781 60 39.535156 C 58.445312 39.152344 56.894531 38.765625 55.292969 38.371094 C 55.808594 33.074219 56.292969 29.5625 60 25.582031 Z M 60 25.582031 "/>
<path fill-rule="nonzero" fill="rgb(80%, 92.54902%, 96.470588%)" fill-opacity="1" d="M 5.882812 34.882812 C 16.363281 34.882812 26.847656 34.882812 37.648438 34.882812 C 38.421875 36.417969 39.199219 37.953125 40 39.535156 C 38.835938 40.109375 38.835938 40.109375 37.648438 40.699219 C 36.871094 39.929688 36.09375 39.164062 35.292969 38.371094 C 35.683594 37.605469 36.070312 36.835938 36.46875 36.046875 C 27.542969 36.046875 18.613281 36.046875 9.410156 36.046875 C 9.410156 41.800781 9.410156 47.558594 9.410156 53.488281 C 19.117188 53.488281 28.824219 53.488281 38.824219 53.488281 C 34.769531 56.160156 33.28125 56.089844 28.515625 56.042969 C 27.199219 56.035156 25.882812 56.027344 24.527344 56.019531 C 22.46875 55.988281 22.46875 55.988281 20.367188 55.960938 C 18.980469 55.949219 17.59375 55.9375 16.164062 55.925781 C 12.738281 55.898438 9.308594 55.859375 5.882812 55.8125 C 5.882812 48.90625 5.882812 42 5.882812 34.882812 Z M 5.882812 34.882812 "/>
<path fill-rule="nonzero" fill="rgb(92.156863%, 99.215686%, 99.215686%)" fill-opacity="1" d="M 91.765625 26.746094 C 93.707031 26.746094 95.648438 26.746094 97.648438 26.746094 C 99.625 31.011719 100.28125 34.296875 100.230469 38.976562 C 100.222656 40.164062 100.214844 41.351562 100.207031 42.574219 C 100.1875 43.800781 100.167969 45.03125 100.148438 46.292969 C 100.136719 47.542969 100.125 48.792969 100.113281 50.078125 C 100.085938 53.152344 100.046875 56.226562 100 59.300781 C 98.835938 59.300781 97.671875 59.300781 96.46875 59.300781 C 96.46875 48.941406 96.46875 38.582031 96.46875 27.90625 C 94.917969 27.523438 93.363281 27.140625 91.765625 26.746094 Z M 91.765625 26.746094 "/>
<path fill-rule="nonzero" fill="rgb(9.803922%, 32.54902%, 50.588235%)" fill-opacity="1" d="M 37.648438 55.8125 C 36.46875 56.976562 36.46875 56.976562 34.070312 57.109375 C 33.039062 57.101562 32.011719 57.097656 30.953125 57.089844 C 29.839844 57.085938 28.730469 57.082031 27.585938 57.078125 C 26.417969 57.070312 25.246094 57.058594 24.042969 57.050781 C 22.871094 57.042969 21.699219 57.039062 20.488281 57.035156 C 17.582031 57.019531 14.671875 57 11.765625 56.976562 C 11.765625 58.128906 11.765625 59.277344 11.765625 60.464844 C 20.304688 60.464844 28.847656 60.464844 37.648438 60.464844 C 37.648438 60.847656 37.648438 61.234375 37.648438 61.628906 C 27.941406 61.628906 18.234375 61.628906 8.234375 61.628906 C 7.847656 59.710938 7.457031 57.789062 7.058594 55.8125 C 11.714844 55.585938 16.371094 55.371094 21.03125 55.160156 C 23.019531 55.0625 23.019531 55.0625 25.050781 54.960938 C 26.949219 54.878906 26.949219 54.878906 28.886719 54.792969 C 30.644531 54.710938 30.644531 54.710938 32.433594 54.625 C 35.292969 54.652344 35.292969 54.652344 37.648438 55.8125 Z M 37.648438 55.8125 "/>
<path fill-rule="nonzero" fill="rgb(1.176471%, 31.372549%, 60.784314%)" fill-opacity="1" d="M 42.1875 30.820312 C 42.632812 31.394531 43.074219 31.96875 43.53125 32.558594 C 43.140625 33.324219 42.753906 34.09375 42.351562 34.882812 C 41.378906 34.605469 41.378906 34.605469 40.382812 34.324219 C 37.386719 33.664062 34.589844 33.476562 31.527344 33.351562 C 29.796875 33.28125 29.796875 33.28125 28.03125 33.207031 C 26.839844 33.160156 25.644531 33.113281 24.410156 33.066406 C 23.199219 33.015625 21.984375 32.964844 20.734375 32.914062 C 17.746094 32.792969 14.753906 32.671875 11.765625 32.558594 C 11.375 31.789062 10.988281 31.023438 10.589844 30.234375 C 15.414062 29.9375 20.242188 29.679688 25.074219 29.433594 C 26.445312 29.347656 27.820312 29.265625 29.234375 29.175781 C 30.550781 29.113281 31.867188 29.050781 33.222656 28.984375 C 35.042969 28.882812 35.042969 28.882812 36.898438 28.78125 C 40 29.070312 40 29.070312 42.1875 30.820312 Z M 42.1875 30.820312 "/>
<path fill-rule="nonzero" fill="rgb(6.666667%, 30.588235%, 52.941176%)" fill-opacity="1" d="M 1.175781 50 C 1.566406 50 1.953125 50 2.351562 50 C 2.410156 50.824219 2.46875 51.652344 2.527344 52.503906 C 2.617188 53.570312 2.703125 54.640625 2.792969 55.742188 C 2.875 56.808594 2.957031 57.871094 3.042969 58.972656 C 3.203125 59.847656 3.363281 60.722656 3.53125 61.628906 C 4.304688 62.011719 5.082031 62.394531 5.882812 62.789062 C 5.882812 67.011719 5.882812 71.234375 5.882812 75.582031 C 4.328125 75.582031 2.777344 75.582031 1.175781 75.582031 C 1.175781 67.140625 1.175781 58.699219 1.175781 50 Z M 1.175781 50 "/>
<path fill-rule="nonzero" fill="rgb(6.666667%, 30.588235%, 52.156863%)" fill-opacity="1" d="M 91.765625 30.234375 C 92.542969 30.234375 93.316406 30.234375 94.117188 30.234375 C 95.53125 33.023438 95.429688 34.761719 95.410156 37.871094 C 95.402344 39.433594 95.402344 39.433594 95.398438 41.027344 C 95.386719 42.117188 95.378906 43.207031 95.367188 44.332031 C 95.363281 45.429688 95.355469 46.527344 95.351562 47.660156 C 95.335938 50.378906 95.316406 53.097656 95.292969 55.8125 C 93.742188 55.8125 92.1875 55.8125 90.589844 55.8125 C 90.722656 53.003906 90.871094 50.195312 91.03125 47.382812 C 91.066406 46.589844 91.101562 45.796875 91.140625 44.980469 C 91.390625 40.710938 91.777344 37.371094 94.117188 33.722656 C 92.953125 33.722656 91.789062 33.722656 90.589844 33.722656 C 90.976562 32.570312 91.363281 31.417969 91.765625 30.234375 Z M 91.765625 30.234375 "/>
<path fill-rule="nonzero" fill="rgb(8.627451%, 30.588235%, 52.156863%)" fill-opacity="1" d="M 65.882812 29.070312 C 73.648438 29.070312 81.410156 29.070312 89.410156 29.070312 C 89.023438 30.222656 88.636719 31.371094 88.234375 32.558594 C 81.246094 32.558594 74.257812 32.558594 67.058594 32.558594 C 66.671875 31.40625 66.28125 30.253906 65.882812 29.070312 Z M 65.882812 29.070312 "/>
<path fill-rule="nonzero" fill="rgb(73.72549%, 83.529412%, 90.196078%)" fill-opacity="1" d="M 58.824219 23.253906 C 60.375 23.253906 61.929688 23.253906 63.53125 23.253906 C 63.917969 24.40625 64.304688 25.558594 64.707031 26.746094 C 72.082031 27.128906 79.457031 27.511719 87.058594 27.90625 C 87.058594 28.289062 87.058594 28.675781 87.058594 29.070312 C 80.070312 29.070312 73.082031 29.070312 65.882812 29.070312 C 66.269531 30.222656 66.660156 31.371094 67.058594 32.558594 C 63.058594 31.242188 62.292969 30.085938 60 26.746094 C 58.445312 28.664062 56.894531 30.582031 55.292969 32.558594 C 54.519531 30.640625 53.742188 28.722656 52.941406 26.746094 C 54.882812 26.359375 56.824219 25.976562 58.824219 25.582031 C 58.824219 24.8125 58.824219 24.046875 58.824219 23.253906 Z M 58.824219 23.253906 "/>
<path fill-rule="nonzero" fill="rgb(14.509804%, 33.333333%, 50.980392%)" fill-opacity="1" d="M 47.058594 36.046875 C 47.445312 36.046875 47.835938 36.046875 48.234375 36.046875 C 48.332031 38.832031 48.402344 41.617188 48.457031 44.402344 C 48.484375 45.1875 48.515625 45.96875 48.546875 46.777344 C 48.621094 51.964844 48.023438 55.234375 44.707031 59.300781 C 40.957031 60.828125 40.957031 60.828125 37.648438 61.628906 C 37.648438 60.476562 37.648438 59.324219 37.648438 58.140625 C 39.976562 57.753906 42.304688 57.371094 44.707031 56.976562 C 45.621094 50.011719 46.378906 43.039062 47.058594 36.046875 Z M 47.058594 36.046875 "/>
<path fill-rule="nonzero" fill="rgb(23.921569%, 47.058824%, 67.058824%)" fill-opacity="1" d="M 95.292969 55.8125 C 94.519531 57.347656 93.742188 58.882812 92.941406 60.464844 C 91.777344 60.464844 90.613281 60.464844 89.410156 60.464844 C 89.410156 59.699219 89.410156 58.929688 89.410156 58.140625 C 81.257812 58.140625 73.105469 58.140625 64.707031 58.140625 C 64.707031 57.753906 64.707031 57.371094 64.707031 56.976562 C 68.480469 56.78125 72.253906 56.585938 76.03125 56.394531 C 77.09375 56.339844 78.15625 56.285156 79.25 56.226562 C 84.605469 55.957031 89.929688 55.742188 95.292969 55.8125 Z M 95.292969 55.8125 "/>
<path fill-rule="nonzero" fill="rgb(90.588235%, 98.039216%, 99.607843%)" fill-opacity="1" d="M 7.058594 62.789062 C 7.445312 62.789062 7.835938 62.789062 8.234375 62.789062 C 9.644531 70.199219 9.488281 74.695312 5.882812 81.394531 C 4.71875 81.394531 3.554688 81.394531 2.351562 81.394531 C 2.351562 80.246094 2.351562 79.09375 2.351562 77.90625 C 1.578125 77.90625 0.800781 77.90625 0 77.90625 C 0 77.140625 0 76.371094 0 75.582031 C 2.328125 75.582031 4.660156 75.582031 7.058594 75.582031 C 7.058594 71.359375 7.058594 67.140625 7.058594 62.789062 Z M 7.058594 62.789062 "/>
<path fill-rule="nonzero" fill="rgb(76.862745%, 87.058824%, 93.72549%)" fill-opacity="1" d="M 68.234375 32.558594 C 70.882812 32.527344 73.53125 32.503906 76.175781 32.484375 C 77.652344 32.472656 79.125 32.457031 80.644531 32.445312 C 83.863281 32.535156 86.375 32.757812 89.410156 33.722656 C 89.410156 36.40625 89.410156 39.09375 89.410156 41.859375 C 88.636719 41.859375 87.859375 41.859375 87.058594 41.859375 C 86.671875 39.558594 86.28125 37.253906 85.882812 34.882812 C 80.058594 34.5 74.234375 34.117188 68.234375 33.722656 C 68.234375 33.335938 68.234375 32.953125 68.234375 32.558594 Z M 68.234375 32.558594 "/>
<path fill-rule="nonzero" fill="rgb(99.215686%, 98.431373%, 94.901961%)" fill-opacity="1" d="M 64.707031 52.324219 C 66.8125 52.261719 68.921875 52.21875 71.03125 52.179688 C 72.203125 52.152344 73.378906 52.125 74.585938 52.097656 C 77.648438 52.324219 77.648438 52.324219 80 54.652344 C 78.824219 55.8125 78.824219 55.8125 75.878906 55.925781 C 74.097656 55.90625 74.097656 55.90625 72.28125 55.886719 C 71.089844 55.875 69.898438 55.867188 68.671875 55.855469 C 67.75 55.839844 66.832031 55.828125 65.882812 55.8125 C 65.492188 54.664062 65.105469 53.511719 64.707031 52.324219 Z M 64.707031 52.324219 "/>
<path fill-rule="nonzero" fill="rgb(13.333333%, 31.372549%, 47.058824%)" fill-opacity="1" d="M 55.292969 38.371094 C 56.847656 38.753906 58.398438 39.140625 60 39.535156 C 60 41.070312 60 42.605469 60 44.1875 C 58.835938 44.1875 57.671875 44.1875 56.46875 44.1875 C 56.46875 48.40625 56.46875 52.628906 56.46875 56.976562 C 56.082031 56.976562 55.695312 56.976562 55.292969 56.976562 C 55.292969 50.835938 55.292969 44.699219 55.292969 38.371094 Z M 55.292969 38.371094 "/>
<path fill-rule="nonzero" fill="rgb(86.27451%, 94.509804%, 98.039216%)" fill-opacity="1" d="M 47.058594 53.488281 C 48.015625 55.449219 48.015625 55.449219 48.234375 58.140625 C 45.734375 61.335938 45.734375 61.335938 42.351562 63.953125 C 39.042969 64.316406 39.042969 64.316406 36.46875 63.953125 C 36.082031 63.1875 35.695312 62.417969 35.292969 61.628906 C 35.945312 61.429688 36.597656 61.230469 37.269531 61.027344 C 42.648438 59.410156 42.648438 59.410156 46.46875 55.597656 C 46.664062 54.902344 46.859375 54.203125 47.058594 53.488281 Z M 47.058594 53.488281 "/>
<path fill-rule="nonzero" fill="rgb(85.098039%, 93.72549%, 96.862745%)" fill-opacity="1" d="M 20 34.882812 C 25.824219 34.882812 31.648438 34.882812 37.648438 34.882812 C 38.421875 36.417969 39.199219 37.953125 40 39.535156 C 38.835938 40.109375 38.835938 40.109375 37.648438 40.699219 C 36.871094 39.929688 36.09375 39.164062 35.292969 38.371094 C 35.683594 37.605469 36.070312 36.835938 36.46875 36.046875 C 31.035156 36.046875 25.601562 36.046875 20 36.046875 C 20 35.664062 20 35.277344 20 34.882812 Z M 20 34.882812 "/>
<path fill-rule="nonzero" fill="rgb(1.960784%, 32.54902%, 62.745098%)" fill-opacity="1" d="M 2.351562 55.8125 C 3.90625 55.8125 5.457031 55.8125 7.058594 55.8125 C 7.445312 57.734375 7.835938 59.652344 8.234375 61.628906 C 5.957031 62.28125 5.957031 62.28125 3.53125 62.789062 C 2.351562 61.628906 2.351562 61.628906 2.28125 58.648438 C 2.304688 57.714844 2.328125 56.777344 2.351562 55.8125 Z M 2.351562 55.8125 "/>
<path fill-rule="nonzero" fill="rgb(15.294118%, 37.254902%, 55.686275%)" fill-opacity="1" d="M 44.707031 53.488281 C 45.480469 54.640625 46.257812 55.789062 47.058594 56.976562 C 44.242188 60.347656 41.984375 61.046875 37.648438 61.628906 C 37.648438 60.476562 37.648438 59.324219 37.648438 58.140625 C 39.976562 57.753906 42.304688 57.371094 44.707031 56.976562 C 44.707031 55.824219 44.707031 54.675781 44.707031 53.488281 Z M 44.707031 53.488281 "/>
<path fill-rule="nonzero" fill="rgb(9.803922%, 31.372549%, 49.411765%)" fill-opacity="1" d="M 4.707031 62.789062 C 5.09375 62.789062 5.480469 62.789062 5.882812 62.789062 C 5.882812 67.011719 5.882812 71.234375 5.882812 75.582031 C 4.328125 75.582031 2.777344 75.582031 1.175781 75.582031 C 1.175781 74.429688 1.175781 73.277344 1.175781 72.09375 C 2.339844 72.09375 3.507812 72.09375 4.707031 72.09375 C 4.707031 69.023438 4.707031 65.953125 4.707031 62.789062 Z M 4.707031 62.789062 "/>
<path fill-rule="nonzero" fill="rgb(5.490196%, 33.72549%, 60.392157%)" fill-opacity="1" d="M 40 29.070312 C 41.164062 30.222656 42.328125 31.371094 43.53125 32.558594 C 43.140625 33.324219 42.753906 34.09375 42.351562 34.882812 C 40.800781 34.5 39.246094 34.117188 37.648438 33.722656 C 37.648438 32.570312 37.648438 31.417969 37.648438 30.234375 C 38.421875 29.847656 39.199219 29.464844 40 29.070312 Z M 40 29.070312 "/>
</svg>
