<?xml version="1.0" encoding="UTF-8"?>
<svg xmlns="http://www.w3.org/2000/svg" xmlns:xlink="http://www.w3.org/1999/xlink" width="100" height="100" viewBox="0 0 100 100">
<path fill-rule="nonzero" fill="rgb(99.607843%, 99.607843%, 99.607843%)" fill-opacity="1" d="M 0 0 C 33 0 66 0 100 0 C 100 33 100 66 100 100 C 67 100 34 100 0 100 C 0 67 0 34 0 0 Z M 0 0 "/>
<path fill-rule="nonzero" fill="rgb(1.960784%, 2.745098%, 3.137255%)" fill-opacity="1" d="M 49.65625 22.949219 C 49.898438 22.949219 50.144531 22.949219 50.386719 22.949219 C 52.136719 22.941406 53.878906 22.992188 55.628906 23.09375 C 55.675781 23.09375 55.722656 23.097656 55.773438 23.101562 C 57.019531 23.171875 58.265625 23.28125 59.507812 23.414062 C 59.59375 23.425781 59.683594 23.433594 59.769531 23.441406 C 61.117188 23.585938 62.449219 23.785156 63.78125 24.019531 C 64 24.054688 64.222656 24.09375 64.441406 24.128906 C 64.804688 24.191406 65.164062 24.253906 65.523438 24.320312 C 65.59375 24.332031 65.664062 24.347656 65.738281 24.359375 C 67.660156 24.707031 69.578125 25.136719 71.453125 25.699219 C 71.683594 25.765625 71.917969 25.828125 72.152344 25.890625 C 72.722656 26.042969 73.285156 26.207031 73.84375 26.402344 C 74.03125 26.46875 74.222656 26.53125 74.414062 26.597656 C 79.484375 28.324219 84.460938 30.539062 88.679688 33.894531 C 88.742188 33.941406 88.742188 33.941406 88.804688 33.992188 C 89.304688 34.390625 89.792969 34.792969 90.257812 35.226562 C 90.390625 35.347656 90.527344 35.46875 90.664062 35.585938 C 90.996094 35.875 91.308594 36.1875 91.625 36.5 C 91.683594 36.558594 91.742188 36.617188 91.804688 36.679688 C 91.859375 36.734375 91.914062 36.789062 91.972656 36.847656 C 92.023438 36.898438 92.074219 36.949219 92.128906 37 C 92.238281 37.128906 92.238281 37.128906 92.238281 37.257812 C 92.28125 37.257812 92.324219 37.257812 92.367188 37.257812 C 92.480469 37.378906 92.480469 37.378906 92.617188 37.550781 C 92.671875 37.617188 92.722656 37.683594 92.777344 37.753906 C 92.804688 37.789062 92.832031 37.824219 92.863281 37.859375 C 92.949219 37.96875 93.035156 38.074219 93.125 38.175781 C 93.976562 39.203125 94.734375 40.335938 95.34375 41.527344 C 95.367188 41.578125 95.394531 41.628906 95.421875 41.679688 C 96.261719 43.339844 96.863281 45.097656 97.023438 46.960938 C 97.035156 47.058594 97.035156 47.058594 97.046875 47.15625 C 97.183594 48.585938 97.078125 50.015625 96.832031 51.421875 C 85.175781 51.421875 73.519531 51.421875 61.511719 51.421875 C 61.511719 56.652344 61.511719 61.882812 61.511719 67.269531 C 61.855469 67.183594 62.195312 67.101562 62.546875 67.011719 C 62.90625 66.929688 62.90625 66.929688 63.066406 66.898438 C 68.394531 65.742188 74.089844 63.429688 78.207031 59.785156 C 78.359375 59.652344 78.460938 59.574219 78.65625 59.507812 C 78.65625 59.464844 78.65625 59.421875 78.65625 59.378906 C 78.746094 59.285156 78.746094 59.285156 78.875 59.175781 C 78.925781 59.136719 78.972656 59.097656 79.019531 59.054688 C 79.070312 59.011719 79.121094 58.96875 79.171875 58.925781 C 79.613281 58.550781 80 58.15625 80.355469 57.699219 C 80.394531 57.65625 80.429688 57.613281 80.464844 57.566406 C 80.507812 57.566406 80.550781 57.566406 80.59375 57.566406 C 80.609375 57.535156 80.625 57.5 80.636719 57.464844 C 80.757812 57.246094 80.921875 57.0625 81.082031 56.867188 C 81.75 56.042969 82.320312 55.152344 82.792969 54.203125 C 87.128906 54.203125 91.460938 54.203125 95.925781 54.203125 C 95.707031 54.769531 95.492188 55.289062 95.203125 55.8125 C 95.164062 55.878906 95.128906 55.949219 95.089844 56.015625 C 94.285156 57.46875 93.261719 58.78125 92.132812 59.992188 C 92.046875 60.085938 91.964844 60.179688 91.878906 60.277344 C 90.84375 61.433594 89.65625 62.449219 88.421875 63.390625 C 88.378906 63.421875 88.335938 63.457031 88.289062 63.492188 C 86.957031 64.507812 85.542969 65.410156 84.089844 66.234375 C 84.007812 66.28125 84.007812 66.28125 83.921875 66.328125 C 82.179688 67.3125 80.378906 68.195312 78.523438 68.953125 C 78.480469 68.96875 78.4375 68.988281 78.390625 69.007812 C 77.023438 69.5625 75.636719 70.058594 74.234375 70.511719 C 73.984375 70.59375 73.738281 70.679688 73.492188 70.773438 C 73.140625 70.902344 72.789062 71.003906 72.429688 71.101562 C 72.359375 71.121094 72.292969 71.140625 72.21875 71.160156 C 70.792969 71.554688 69.359375 71.917969 67.917969 72.25 C 67.832031 72.269531 67.832031 72.269531 67.742188 72.292969 C 66.519531 72.574219 65.28125 72.785156 64.046875 73.003906 C 63.855469 73.035156 63.664062 73.070312 63.472656 73.105469 C 62.65625 73.246094 61.835938 73.355469 61.015625 73.453125 C 60.628906 73.5 60.242188 73.550781 59.855469 73.613281 C 59.441406 73.679688 59.027344 73.714844 58.605469 73.742188 C 58.46875 73.753906 58.328125 73.761719 58.1875 73.773438 C 58.128906 73.777344 58.066406 73.78125 58.003906 73.785156 C 57.816406 73.804688 57.628906 73.835938 57.4375 73.867188 C 56.882812 73.890625 56.328125 73.910156 55.757812 73.933594 C 55.757812 64.605469 55.757812 55.277344 55.757812 45.667969 C 65.042969 45.667969 74.328125 45.667969 83.894531 45.667969 C 83.066406 43.1875 82.007812 41.085938 80.207031 39.199219 C 80.128906 39.109375 80.054688 39.019531 79.976562 38.929688 C 79.550781 38.441406 79.085938 37.996094 78.589844 37.582031 C 78.539062 37.535156 78.484375 37.488281 78.429688 37.445312 C 73.628906 33.355469 67.535156 31.125 61.449219 29.820312 C 61.449219 34.109375 61.449219 38.398438 61.449219 42.820312 C 59.570312 42.820312 57.691406 42.820312 55.757812 42.820312 C 55.757812 38.230469 55.757812 33.640625 55.757812 28.914062 C 55.117188 28.871094 54.476562 28.828125 53.816406 28.785156 C 53.398438 28.75 53.398438 28.75 52.976562 28.71875 C 52.976562 43.703125 52.976562 58.6875 52.976562 74.125 C 51.074219 74.125 49.175781 74.125 47.21875 74.125 C 47.21875 59.140625 47.21875 44.15625 47.21875 28.71875 C 46.148438 28.785156 46.148438 28.785156 45.085938 28.914062 C 44.871094 28.914062 44.65625 28.914062 44.4375 28.914062 C 44.4375 33.523438 44.4375 38.132812 44.4375 42.886719 C 42.539062 42.886719 40.636719 42.886719 38.679688 42.886719 C 38.679688 38.574219 38.679688 34.261719 38.679688 29.820312 C 36.75 30.269531 34.882812 30.730469 33.007812 31.355469 C 32.960938 31.371094 32.910156 31.386719 32.859375 31.40625 C 31.035156 32.015625 29.269531 32.75 27.558594 33.632812 C 27.414062 33.707031 27.265625 33.78125 27.121094 33.851562 C 25.75 34.546875 24.445312 35.359375 23.222656 36.289062 C 23.144531 36.34375 23.070312 36.402344 22.992188 36.457031 C 22.492188 36.835938 22.011719 37.234375 21.539062 37.644531 C 21.460938 37.710938 21.460938 37.710938 21.382812 37.78125 C 20.597656 38.46875 19.84375 39.210938 19.210938 40.039062 C 19.160156 40.101562 19.109375 40.167969 19.054688 40.234375 C 18.160156 41.367188 17.394531 42.601562 16.855469 43.941406 C 16.835938 43.988281 16.816406 44.035156 16.796875 44.082031 C 16.597656 44.601562 16.457031 45.128906 16.300781 45.667969 C 25.585938 45.667969 34.871094 45.667969 44.4375 45.667969 C 44.4375 54.996094 44.4375 64.320312 44.4375 73.933594 C 43.644531 73.894531 42.863281 73.859375 42.078125 73.777344 C 41.988281 73.769531 41.902344 73.761719 41.8125 73.753906 C 41.589844 73.730469 41.367188 73.710938 41.140625 73.6875 C 41.011719 73.675781 40.878906 73.660156 40.75 73.648438 C 39.003906 73.472656 39.003906 73.472656 38.164062 73.351562 C 38.113281 73.34375 38.058594 73.335938 38.007812 73.328125 C 37.835938 73.304688 37.664062 73.277344 37.492188 73.253906 C 37.4375 73.246094 37.386719 73.238281 37.332031 73.230469 C 37.28125 73.222656 37.226562 73.214844 37.175781 73.207031 C 37.128906 73.199219 37.085938 73.195312 37.039062 73.1875 C 36.890625 73.160156 36.742188 73.128906 36.597656 73.09375 C 36.292969 73.027344 35.992188 72.980469 35.6875 72.9375 C 35.011719 72.839844 34.347656 72.714844 33.683594 72.578125 C 33.625 72.566406 33.566406 72.554688 33.503906 72.542969 C 32.496094 72.335938 31.5 72.101562 30.503906 71.851562 C 30.4375 71.835938 30.375 71.820312 30.308594 71.800781 C 24.820312 70.425781 19.289062 68.40625 11.882812 63.476562 C 11.769531 63.386719 11.65625 63.300781 11.542969 63.214844 C 10.472656 62.390625 9.472656 61.480469 8.515625 60.527344 C 8.472656 60.484375 8.429688 60.441406 8.386719 60.398438 C 8.101562 60.113281 7.832031 59.816406 7.566406 59.507812 C 7.511719 59.445312 7.457031 59.378906 7.398438 59.316406 C 6.242188 57.980469 5.28125 56.484375 4.523438 54.890625 C 4.5 54.839844 4.472656 54.785156 4.445312 54.730469 C 4.269531 54.351562 4.269531 54.351562 4.269531 54.203125 C 5.957031 54.171875 7.648438 54.144531 9.335938 54.128906 C 10.121094 54.125 10.90625 54.113281 11.6875 54.097656 C 12.375 54.082031 13.058594 54.074219 13.742188 54.070312 C 14.101562 54.070312 14.464844 54.0625 14.828125 54.054688 C 17.03125 53.992188 17.03125 53.992188 17.535156 54.34375 C 17.835938 54.671875 17.988281 55.03125 18.117188 55.457031 C 18.207031 55.71875 18.359375 55.921875 18.53125 56.136719 C 18.589844 56.210938 18.648438 56.289062 18.703125 56.363281 C 19.007812 56.753906 19.320312 57.140625 19.636719 57.519531 C 19.695312 57.59375 19.753906 57.664062 19.8125 57.738281 C 19.988281 57.953125 20.175781 58.148438 20.375 58.34375 C 20.429688 58.402344 20.488281 58.457031 20.542969 58.515625 C 20.601562 58.574219 20.660156 58.632812 20.71875 58.691406 C 20.777344 58.75 20.832031 58.808594 20.890625 58.867188 C 21.796875 59.757812 22.828125 60.53125 23.867188 61.253906 C 23.910156 61.285156 23.949219 61.3125 23.992188 61.339844 C 27 63.421875 30.371094 64.878906 33.835938 66 C 33.949219 66.039062 34.066406 66.078125 34.179688 66.113281 C 35.308594 66.480469 36.460938 66.742188 37.617188 66.996094 C 37.707031 67.015625 37.707031 67.015625 37.800781 67.039062 C 37.917969 67.0625 38.03125 67.085938 38.148438 67.113281 C 38.535156 67.199219 38.535156 67.199219 38.679688 67.269531 C 38.679688 62.039062 38.679688 56.8125 38.679688 51.421875 C 27.027344 51.421875 15.371094 51.421875 3.363281 51.421875 C 3.199219 50.527344 3.082031 49.6875 3.089844 48.777344 C 3.089844 48.625 3.089844 48.472656 3.085938 48.320312 C 3.085938 47.410156 3.160156 46.503906 3.347656 45.609375 C 3.363281 45.53125 3.363281 45.53125 3.378906 45.449219 C 3.816406 43.421875 4.691406 41.550781 5.832031 39.832031 C 5.859375 39.796875 5.882812 39.757812 5.90625 39.722656 C 6.222656 39.246094 6.558594 38.796875 6.921875 38.355469 C 6.953125 38.320312 6.984375 38.28125 7.015625 38.242188 C 7.136719 38.09375 7.257812 37.945312 7.382812 37.796875 C 7.507812 37.640625 7.507812 37.640625 7.632812 37.453125 C 7.675781 37.453125 7.71875 37.453125 7.761719 37.453125 C 7.777344 37.414062 7.796875 37.375 7.8125 37.335938 C 8.023438 36.949219 8.363281 36.652344 8.699219 36.371094 C 8.976562 36.117188 9.238281 35.84375 9.5 35.574219 C 9.542969 35.53125 9.582031 35.492188 9.625 35.449219 C 9.660156 35.410156 9.699219 35.375 9.734375 35.335938 C 9.832031 35.253906 9.832031 35.253906 9.960938 35.253906 C 9.960938 35.210938 9.960938 35.167969 9.960938 35.121094 C 10.082031 35.011719 10.082031 35.011719 10.253906 34.875 C 10.316406 34.824219 10.382812 34.773438 10.449219 34.71875 C 10.484375 34.691406 10.523438 34.660156 10.558594 34.632812 C 10.675781 34.539062 10.792969 34.441406 10.910156 34.34375 C 12.503906 33.023438 14.242188 31.875 16.042969 30.855469 C 16.089844 30.828125 16.136719 30.796875 16.1875 30.769531 C 16.523438 30.578125 16.863281 30.390625 17.207031 30.207031 C 17.265625 30.175781 17.328125 30.140625 17.386719 30.109375 C 18.65625 29.425781 19.957031 28.832031 21.28125 28.265625 C 21.359375 28.234375 21.4375 28.199219 21.515625 28.164062 C 23.984375 27.117188 26.550781 26.222656 29.15625 25.585938 C 29.367188 25.535156 29.578125 25.476562 29.785156 25.421875 C 29.902344 25.390625 30.015625 25.359375 30.128906 25.328125 C 30.226562 25.300781 30.328125 25.277344 30.425781 25.25 C 31.324219 25.007812 32.226562 24.792969 33.136719 24.609375 C 33.335938 24.566406 33.535156 24.527344 33.738281 24.484375 C 34.710938 24.28125 35.6875 24.089844 36.679688 23.96875 C 37.167969 23.902344 37.652344 23.824219 38.136719 23.742188 C 40.042969 23.429688 41.957031 23.273438 43.878906 23.144531 C 43.960938 23.140625 44.039062 23.132812 44.125 23.128906 C 44.660156 23.089844 45.195312 23.058594 45.730469 23.027344 C 45.824219 23.023438 45.824219 23.023438 45.917969 23.015625 C 47.164062 22.945312 48.410156 22.949219 49.65625 22.949219 Z M 49.65625 22.949219 "/>
</svg>
